<?xml version="1.0" encoding="utf-8"?>
<!-- Generator: Adobe Illustrator 27.5.0, SVG Export Plug-In . SVG Version: 6.00 Build 0)  -->
<svg version="1.1" xmlns="http://www.w3.org/2000/svg" xmlns:xlink="http://www.w3.org/1999/xlink" x="0px" y="0px" viewBox="0 0 500 500" style="enable-background: new 0 0 500 500" xml:space="preserve">
<g id="Background_complete">
	<g>
		<path style="fill: #f5f5f5" d="M446.015,196.41h-28.873c-0.754,0-1.365-0.742-1.365-1.658v-6.983c0-0.916,0.611-1.658,1.365-1.658
			h28.873c0.754,0,1.365,0.742,1.365,1.658v6.983C447.38,195.668,446.769,196.41,446.015,196.41z"></path>
		<path style="fill: #f5f5f5" d="M482.423,196.017H453.55c-0.754,0-1.365-0.742-1.365-1.658v-6.983c0-0.916,0.611-1.658,1.365-1.658
			h28.873c0.754,0,1.365,0.742,1.365,1.658v6.983C483.788,195.274,483.176,196.017,482.423,196.017z"></path>
		<path style="fill: #f5f5f5" d="M463.786,182.958h-28.873c-0.754,0-1.365-0.742-1.365-1.658v-6.983
			c0-0.916,0.611-1.658,1.365-1.658h28.873c0.754,0,1.365,0.742,1.365,1.658v6.983C465.151,182.216,464.54,182.958,463.786,182.958z
			"></path>
	</g>
	<g>
		<path style="fill: #f5f5f5" d="M342.972,289.727h-28.873c-0.754,0-1.365-0.742-1.365-1.658v-6.983
			c0-0.916,0.611-1.658,1.365-1.658h28.873c0.754,0,1.365,0.742,1.365,1.658v6.983C344.337,288.985,343.726,289.727,342.972,289.727
			z"></path>
		<path style="fill: #f5f5f5" d="M379.379,289.334h-28.873c-0.754,0-1.365-0.742-1.365-1.658v-6.983
			c0-0.916,0.611-1.658,1.365-1.658h28.873c0.754,0,1.365,0.742,1.365,1.658v6.983C380.744,288.591,380.133,289.334,379.379,289.334
			z"></path>
		<path style="fill: #f5f5f5" d="M360.742,276.275H331.87c-0.754,0-1.365-0.742-1.365-1.658v-6.983c0-0.916,0.611-1.658,1.365-1.658
			h28.873c0.754,0,1.365,0.742,1.365,1.658v6.983C362.108,275.533,361.496,276.275,360.742,276.275z"></path>
	</g>
	<g>
		<path style="fill: #f5f5f5" d="M55.935,222.969H27.062c-0.754,0-1.365-0.742-1.365-1.658v-6.983c0-0.916,0.611-1.658,1.365-1.658
			h28.873c0.754,0,1.365,0.742,1.365,1.658v6.983C57.3,222.227,56.689,222.969,55.935,222.969z"></path>
		<path style="fill: #f5f5f5" d="M92.342,222.576H63.47c-0.754,0-1.365-0.742-1.365-1.658v-6.983c0-0.916,0.611-1.658,1.365-1.658
			h28.873c0.754,0,1.365,0.742,1.365,1.658v6.983C93.707,221.834,93.096,222.576,92.342,222.576z"></path>
		<path style="fill: #f5f5f5" d="M73.706,209.517H44.833c-0.754,0-1.365-0.742-1.365-1.658v-6.983c0-0.916,0.611-1.658,1.365-1.658
			h28.873c0.754,0,1.365,0.742,1.365,1.658v6.983C75.071,208.775,74.46,209.517,73.706,209.517z"></path>
	</g>
	<g>
		<rect x="333.995" y="144.49" style="fill: #e6e6e6" width="62.423" height="80.089"></rect>
		<rect x="320.029" y="144.49" style="fill: #f0f0f0" width="73.325" height="80.089"></rect>
		<rect x="326.79" y="151.604" style="fill: #fff" width="59.486" height="65.862"></rect>
		<rect x="346.33" y="172.647" style="fill: #f0f0f0" width="21.473" height="23.774"></rect>
	</g>
	<g>
		<rect x="375.999" y="53.263" style="fill: #e6e6e6" width="61.702" height="79.165"></rect>
		<rect x="362.194" y="53.263" style="fill: #f0f0f0" width="72.479" height="79.165"></rect>
		<rect x="368.876" y="60.295" style="fill: #fff" width="58.8" height="65.102"></rect>
		<rect x="388.191" y="81.096" style="fill: #f0f0f0" width="21.225" height="23.5"></rect>
	</g>
	<g>
		<g>
			<g>
				<g>
					<g>
						<path style="fill: #e0e0e0" d="M443.92,309.136H263.174c-3.232,0-5.862-2.63-5.862-5.862V40c0-3.232,2.63-5.862,5.862-5.862
							H443.92c3.232,0,5.862,2.629,5.862,5.862v263.273C449.783,306.506,447.153,309.136,443.92,309.136z M263.174,34.389
							c-3.095,0-5.612,2.518-5.612,5.612v263.273c0,3.095,2.518,5.612,5.612,5.612H443.92c3.095,0,5.612-2.517,5.612-5.612V40
							c0-3.094-2.518-5.612-5.612-5.612H263.174z"></path>
					</g>
				</g>
				<g>
					<g>
						<path style="fill: #e0e0e0" d="M235.493,309.136H54.746c-3.232,0-5.862-2.63-5.862-5.862V40c0-3.232,2.629-5.862,5.862-5.862
							h180.747c3.232,0,5.862,2.629,5.862,5.862v263.273C241.355,306.506,238.725,309.136,235.493,309.136z M54.746,34.389
							c-3.094,0-5.612,2.518-5.612,5.612v263.273c0,3.095,2.518,5.612,5.612,5.612h180.747c3.095,0,5.612-2.517,5.612-5.612V40
							c0-3.094-2.518-5.612-5.612-5.612H54.746z"></path>
					</g>
				</g>
			</g>
			<g>
				<g>
					<rect x="0" y="370.205" style="fill: #e0e0e0" width="500" height="0.25"></rect>
				</g>
			</g>
		</g>
		<rect x="51.672" y="384.47" style="fill: #e0e0e0" width="16.06" height="0.25"></rect>
		<rect x="170.352" y="381.76" style="fill: #e0e0e0" width="53.53" height="0.25"></rect>
		<rect x="68.732" y="393.76" style="fill: #e0e0e0" width="36.25" height="0.25"></rect>
		<rect x="378.352" y="381.63" style="fill: #e0e0e0" width="43.19" height="0.25"></rect>
		<rect x="430.452" y="381.63" style="fill: #e0e0e0" width="6.33" height="0.25"></rect>
		<rect x="316.212" y="387.86" style="fill: #e0e0e0" width="53.89" height="0.25"></rect>
	</g>
	<g>
		<g>
			<rect x="74.395" y="56.242" style="fill: #ebebeb" width="118.945" height="246.087"></rect>
			<rect x="81.544" y="63.391" style="fill: #fafafa" width="104.648" height="231.79"></rect>
			<polygon style="fill: #f0f0f0" points="122.616,295.181 154.07,295.181 183.599,63.391 152.145,63.391 			"></polygon>
			<polygon style="fill: #f0f0f0" points="137.533,63.391 108.004,295.181 115.629,295.181 145.158,63.391 			"></polygon>
			<polygon style="fill: #e0e0e0" points="194.846,62.209 72.889,62.209 70.316,56.204 197.42,56.204 			"></polygon>
			<polygon style="fill: #ebebeb" points="194.846,65.688 72.889,65.688 70.316,59.683 197.42,59.683 			"></polygon>
			<polygon style="fill: #e6e6e6" points="194.846,69.158 72.889,69.158 70.316,63.153 197.42,63.153 			"></polygon>
			<polygon style="fill: #e0e0e0" points="194.846,72.637 72.889,72.637 70.316,66.632 197.42,66.632 			"></polygon>
			<path style="fill: #e0e0e0" d="M67.294,129.283L67.294,129.283c-0.763,0-1.382-0.619-1.382-1.382c0-0.003,0-0.006,0-0.009V81.187
				c0.005-0.759,0.622-1.373,1.382-1.372l0,0c0.763,0,1.382,0.619,1.382,1.382v46.705C68.676,128.664,68.058,129.283,67.294,129.283
				L67.294,129.283z"></path>
			<rect x="66.78" y="55.079" style="fill: #e0e0e0" width="1.001" height="27.737"></rect>
		</g>
		<rect x="65.883" y="48.684" style="fill: #ebebeb" width="135.969" height="8.007"></rect>
	</g>
	<g>
		<polygon style="fill: #e0e0e0" points="425.92,419.025 424.719,445.116 421.845,445.116 418.064,425.185 		"></polygon>
		<polygon style="fill: #e0e0e0" points="345.434,419.025 346.636,445.116 349.51,445.116 353.291,425.185 		"></polygon>
		<polygon style="fill: #f0f0f0" points="330.015,313.367 336.14,428.966 343.055,428.966 342.89,424.926 429.324,424.926 
			429.148,428.966 436.074,428.966 441.916,313.367 		"></polygon>
		<polygon style="fill: #fafafa" points="342.619,418.778 429.595,418.778 433.883,320.364 338.355,320.364 		"></polygon>
		<polygon style="fill: #ebebeb" points="342.277,348.763 429.089,348.763 430.043,325.111 341.323,325.111 		"></polygon>
		<polygon style="fill: #ebebeb" points="345.328,415.833 426.58,415.833 429.183,351.708 342.737,351.708 		"></polygon>
		<path style="fill: #fafafa" d="M385.872,332.378c2.186,0,3.958,1.529,3.958,3.416c0,1.887-1.772,3.416-3.958,3.416
			c-2.186,0-3.958-1.529-3.958-3.416C381.914,333.908,383.686,332.378,385.872,332.378z"></path>
		<path style="fill: #fafafa" d="M419.689,387.716L419.689,387.716c1.474,0.102,2.755-1.001,2.874-2.474v-17.08
			c-0.119-1.472-1.4-2.575-2.874-2.474l0,0c-1.471-0.101-2.749,1.003-2.862,2.474v17.08
			C416.94,386.713,418.218,387.818,419.689,387.716z"></path>
		<polygon style="fill: #ebebeb" points="335.599,418.778 336.812,444.868 340.911,444.868 344.704,424.926 		"></polygon>
		<polygon style="fill: #ebebeb" points="436.038,419.025 434.825,445.116 430.726,445.116 426.933,425.185 		"></polygon>
		<path style="fill: #ebebeb" d="M406.932,247.44c0,0-12.368,19.447-11.92,43.429C395.012,290.869,401.679,261.904,406.932,247.44z"></path>
		<path style="fill: #ebebeb" d="M384.105,237.275c0,0,15.501,22.733,12.156,51.31C396.261,288.584,390.772,252.481,384.105,237.275
			z"></path>
		<path style="fill: #f0f0f0" d="M396.025,295.498c0,0,4.028-29.53-14.135-38.447C381.914,257.052,391.537,264.472,396.025,295.498z
			"></path>
		<path style="fill: #f0f0f0" d="M397.886,304.038c0-0.353-4.712-34.783,2.297-64.419l0.99,0.235
			c-6.95,29.448-2.356,63.701-2.285,64.043L397.886,304.038z"></path>
		<path style="fill: #ebebeb" d="M397.698,240.149l-0.342,0.071c-0.478,0.098-0.785,0.566-0.687,1.044
			c0.01,0.046,0.022,0.091,0.039,0.134l0.459,1.461c0.147,0.465,0.643,0.724,1.108,0.577c0.143-0.045,0.273-0.126,0.376-0.235
			l0.53-0.542c0.338-0.352,0.898-0.362,1.249-0.024c0.093,0.089,0.165,0.198,0.211,0.318l0.801,2.002
			c0.178,0.454,0.69,0.678,1.145,0.501c0.053-0.021,0.103-0.046,0.151-0.077l1.673-1.072c0.413-0.273,0.526-0.828,0.253-1.24
			c-0.033-0.049-0.07-0.096-0.112-0.138l-0.283-0.271c-0.352-0.338-0.363-0.897-0.025-1.249c0.155-0.162,0.367-0.259,0.591-0.27
			l1.472-0.083c0.487-0.025,0.862-0.44,0.837-0.927c-0.002-0.037-0.006-0.073-0.012-0.109l-0.2-1.249
			c-0.08-0.481-0.535-0.806-1.017-0.726c-0.093,0.015-0.184,0.046-0.267,0.09l-0.106,0.059c-0.433,0.239-0.977,0.082-1.217-0.35
			c-0.142-0.256-0.149-0.565-0.02-0.828l0.448-1.178c0.166-0.459-0.072-0.965-0.531-1.131c-0.064-0.023-0.132-0.039-0.2-0.047
			l-1.578-0.153c-0.485-0.052-0.92,0.299-0.973,0.784c-0.004,0.033-0.005,0.066-0.005,0.099l0,0
			c-0.013,0.494-0.424,0.885-0.918,0.872c-0.297-0.008-0.571-0.162-0.731-0.413l-0.212-0.365c-0.26-0.42-0.812-0.549-1.232-0.289
			c-0.057,0.035-0.11,0.077-0.157,0.124l-1.178,1.178c-0.358,0.332-0.379,0.891-0.047,1.249c0.015,0.016,0.031,0.032,0.047,0.047
			l0.954,0.836c0.375,0.312,0.425,0.869,0.113,1.244C397.998,240.002,397.857,240.097,397.698,240.149z"></path>
		<path style="fill: #e0e0e0" d="M399.677,287.583l1.272-9.883h-11.202l1.284,9.883c-5.333,1.838-8.913,6.857-8.917,12.497
			c0.22,4.797,1.901,9.413,4.818,13.228h16.832c2.917-3.815,4.598-8.431,4.818-13.228
			C408.583,294.441,405.007,289.422,399.677,287.583z"></path>
	</g>
	<g>
		<path style="fill: #f0f0f0" d="M147.181,327.035h-28.873c-0.754,0-1.365-0.742-1.365-1.658v-6.983
			c0-0.916,0.611-1.658,1.365-1.658h28.873c0.754,0,1.365,0.742,1.365,1.658v6.983C148.546,326.293,147.935,327.035,147.181,327.035
			z"></path>
		<path style="fill: #f0f0f0" d="M147.181,352.582h-28.873c-0.754,0-1.365-0.742-1.365-1.658v-6.983
			c0-0.916,0.611-1.658,1.365-1.658h28.873c0.754,0,1.365,0.742,1.365,1.658v6.983C148.546,351.839,147.935,352.582,147.181,352.582
			z"></path>
		<path style="fill: #f0f0f0" d="M156.84,339.808h-28.873c-0.754,0-1.365-0.742-1.365-1.658v-6.983c0-0.916,0.611-1.658,1.365-1.658
			h28.873c0.754,0,1.365,0.742,1.365,1.658v6.983C158.205,339.066,157.594,339.808,156.84,339.808z"></path>
		<path style="fill: #ebebeb" d="M123.758,339.808H94.886c-0.754,0-1.365-0.742-1.365-1.658v-6.983c0-0.916,0.611-1.658,1.365-1.658
			h28.873c0.754,0,1.365,0.742,1.365,1.658v6.983C125.123,339.066,124.512,339.808,123.758,339.808z"></path>
	</g>
	<g>
		<path style="fill: #f0f0f0" d="M254.291,49.918h-28.873c-0.754,0-1.365-0.742-1.365-1.658v-6.983c0-0.916,0.611-1.658,1.365-1.658
			h28.873c0.754,0,1.365,0.742,1.365,1.658v6.983C255.656,49.176,255.045,49.918,254.291,49.918z"></path>
		<path style="fill: #f0f0f0" d="M290.699,49.524h-28.873c-0.754,0-1.365-0.742-1.365-1.658v-6.983c0-0.916,0.611-1.658,1.365-1.658
			h28.873c0.754,0,1.365,0.742,1.365,1.658v6.983C292.064,48.782,291.452,49.524,290.699,49.524z"></path>
		<path style="fill: #f0f0f0" d="M272.062,36.466h-28.873c-0.754,0-1.365-0.742-1.365-1.658v-6.983c0-0.916,0.611-1.658,1.365-1.658
			h28.873c0.754,0,1.365,0.742,1.365,1.658v6.983C273.427,35.723,272.816,36.466,272.062,36.466z"></path>
	</g>
</g>
<g id="Background_simple" style="display: none">
	<g style="display: inline">
		<path style="fill: #407bff" d="M99.238,191.951c4.245-11.572,12.6-22.52,25.32-31.964c14.993-11.131,38.033-22.12,67.202-17.083
			c53.851,9.3,53.261,41.018,90.005,36.509c41.621-5.107,89.785,2.107,101.645,34.915c22.526,62.315-130.74,128.655-211.906,103.836
			C120.974,302.713,76.701,253.398,99.238,191.951z"></path>
		<path style="opacity: .9; fill: #fff" d="M99.238,191.951c4.245-11.572,12.6-22.52,25.32-31.964
			c14.993-11.131,38.033-22.12,67.202-17.083c53.851,9.3,53.261,41.018,90.005,36.509c41.621-5.107,89.785,2.107,101.645,34.915
			c22.526,62.315-130.74,128.655-211.906,103.836C120.974,302.713,76.701,253.398,99.238,191.951z"></path>
	</g>
</g>
<g id="Shadow">
	<g>
		<g>
			<path style="fill: #f5f5f5" d="M424.8,455.532c0,9.131-78.26,16.534-174.8,16.534s-174.8-7.402-174.8-16.534
				c0-9.132,78.26-16.534,174.8-16.534S424.8,446.401,424.8,455.532z"></path>
		</g>
	</g>
</g>
<g id="Plant">
	<g>
		<g>
			<path style="fill: #407bff" d="M125.915,400.433c-3.22-0.176-6.258-1.743-8.631-3.926c-2.373-2.183-4.136-4.951-5.593-7.827
				c-3.87-7.637-5.742-16.277-5.379-24.831c0.078-1.834,0.268-3.708,1.055-5.366c0.788-1.658,2.278-3.081,4.095-3.344
				c2.713-0.392,5.08,1.777,6.804,3.909c7.824,9.677,11.848,22.347,11.042,34.765C129.11,396.852,128.096,399.788,125.915,400.433"></path>
		</g>
		<g>
			<path style="fill: #407bff" d="M140.317,383.608c-2.648-5.5-2.843-12.016-1.092-17.864c1.75-5.848,5.346-11.044,9.799-15.219
				c4.884-4.578,11.155-8.094,17.849-8.13c2.854-0.015,5.943,0.751,7.695,3.004c1.865,2.398,1.711,5.809,0.893,8.734
				c-1.34,4.791-4.184,9.055-7.58,12.69c-3.396,3.635-7.35,6.698-11.294,9.73c-4.445,3.418-9.246,6.956-14.837,7.383"></path>
		</g>
		<g>
			<path style="fill: #407bff" d="M140.713,402.168c0.788-6.18,5.588-11.29,11.201-13.992c5.614-2.702,11.972-3.366,18.194-3.677
				c1.385-0.069,2.804-0.119,4.128,0.293c1.325,0.412,2.559,1.378,2.914,2.719c0.466,1.756-0.648,3.519-1.811,4.915
				c-6.817,8.182-17.482,13.012-28.128,12.738c-1.231-0.032-2.486-0.133-3.624-0.606c-1.137-0.473-2.154-1.372-2.497-2.555"></path>
		</g>
		<g>
			<g>
				<path style="fill: #263238" d="M111.601,359.928c7.423,18.136,13.376,36.865,17.756,55.967
					c1.236,5.391,2.344,10.81,3.332,16.252c0.086,0.474,0.809,0.273,0.723-0.199c-3.503-19.281-8.565-38.27-15.152-56.727
					c-1.859-5.209-3.842-10.373-5.937-15.491C112.144,359.288,111.418,359.48,111.601,359.928L111.601,359.928z"></path>
			</g>
		</g>
		<g>
			<g>
				<path style="fill: #263238" d="M133.844,424.74c-0.362-11.132,0.516-22.366,3.614-33.102
					c3.101-10.748,8.486-20.725,15.915-29.101c4.714-5.315,10.149-9.935,16.006-13.944c0.396-0.271,0.021-0.921-0.379-0.648
					c-10.045,6.878-18.792,15.595-24.923,26.167c-5.546,9.563-8.77,20.259-10.169,31.192c-0.824,6.442-1.026,12.948-0.814,19.435
					C133.11,425.222,133.86,425.224,133.844,424.74L133.844,424.74z"></path>
			</g>
		</g>
		<g>
			<g>
				<path style="fill: #263238" d="M134.2,409.279c8.799-10.235,21.123-17.36,34.425-19.722c0.474-0.084,0.273-0.807-0.199-0.723
					c-13.413,2.382-25.883,9.595-34.756,19.915C133.357,409.113,133.885,409.646,134.2,409.279L134.2,409.279z"></path>
			</g>
		</g>
		<g>
			<path style="fill: #407bff" d="M153.746,432.785v-13.377h-18.633H116.48v13.377c0,0-0.717,23.65,12.422,25.799h6.211h6.211
				C154.462,456.434,153.746,432.785,153.746,432.785z"></path>
			<path style="opacity: .5" d="M153.746,432.785v-13.377h-18.633H116.48v13.377c0,0-0.717,23.65,12.422,25.799h6.211h6.211
				C154.462,456.434,153.746,432.785,153.746,432.785z"></path>
		</g>
	</g>
</g>
<g id="Speech_Bubble">
	<g>
		<g>
			<g>
				<path style="fill: #407bff" d="M357.257,141.43c8.316-1.479,18.285-8.966,18.49-16.346c11.409,2.795,23.924-4.912,26.44-16.282
					c2.474-11.178-7.88-21.949-18.993-25.316c3.678-7.929,1.769-18.746-5.263-24.598c-8.658-7.205-23.04-5.189-28.825,4.04
					c-8.804-11.226-26.518-13.91-37.485-5.679c-10.967,8.231-13.303,25.964-4.943,37.523c-11.341,2.499-17.995,16.819-12.834,27.622
					c5.161,10.802,20.667,15.009,29.908,8.115C323.75,130.509,336.116,145.189,357.257,141.43z"></path>
			</g>
			<g style="opacity: .6">
				<path style="fill: #fff" d="M357.257,141.43c8.316-1.479,18.285-8.966,18.49-16.346c11.409,2.795,23.924-4.912,26.44-16.282
					c2.474-11.178-7.88-21.949-18.993-25.316c3.678-7.929,1.769-18.746-5.263-24.598c-8.658-7.205-23.04-5.189-28.825,4.04
					c-8.804-11.226-26.518-13.91-37.485-5.679c-10.967,8.231-13.303,25.964-4.943,37.523c-11.341,2.499-17.995,16.819-12.834,27.622
					c5.161,10.802,20.667,15.009,29.908,8.115C323.75,130.509,336.116,145.189,357.257,141.43z"></path>
			</g>
			<path style="fill: #407bff" d="M290.107,95.914c-3.256,0.772-6.497-1.139-7.239-4.269c-0.742-3.13,1.296-6.292,4.552-7.064
				c3.256-0.772,6.497,1.14,7.239,4.269C295.401,91.98,293.363,95.143,290.107,95.914z"></path>
			<path style="opacity: .6; fill: #fff" d="M290.107,95.914c-3.256,0.772-6.497-1.139-7.239-4.269
				c-0.742-3.13,1.296-6.292,4.552-7.064c3.256-0.772,6.497,1.14,7.239,4.269C295.401,91.98,293.363,95.143,290.107,95.914z"></path>
		</g>
		<g>
			<g>
				<g>
					<path style="fill: #ff904b" d="M306.75,103.956c0-8.06,19.48-11.379,42.063-11.379c22.583,0,39.717,3.161,39.717,11.379
						c0,10.076-17.991,12.673-40.89,12.673C325.057,116.629,306.75,114.032,306.75,103.956z"></path>
					<g>
						<path style="fill: #ffb463" d="M377.212,110.546c3.978-0.899,7.61-3.272,8.877-5.413c1.267-2.142-0.348-4.788-4.253-5.768
							l-70.98,3.886c-3.289,1.056-3.115,3.284-0.548,4.78c2.567,1.497,8.639,3.502,12.448,3.87c0,0,11.505,1.813,28.837,1.256
							C370.836,112.538,377.212,110.546,377.212,110.546z"></path>
					</g>
					<g>
						<path style="fill: #9b665d" d="M377.212,107.539c3.978-0.898,7.61-3.272,8.877-5.413c1.267-2.142-0.348-4.788-4.253-5.768
							l-70.98,3.886c-3.289,1.056-3.115,3.284-0.548,4.78c2.567,1.497,8.639,3.502,12.448,3.871c0,0,11.505,1.813,28.837,1.256
							C370.836,109.532,377.212,107.539,377.212,107.539z"></path>
					</g>
					<g>
						<path style="fill: #407bff" d="M388.76,96.235c-1.338-2.143-6.129-2.966-9.172-4.449c-2.57-1.252-5.871-2.498-9.215-2.177
							l-54.747,4.223c-2.669,0.816-5.463,1.697-7.037,3.165c-1.574,1.468-1.343,3.703,1.282,4.564
							c2.547,0.835,5.944,0.043,8.645,0.706c2.56,0.629,3.739,2.368,6.16,3.154c2.21,0.717,4.982,0.496,7.432,0.101
							s4.911-0.951,7.451-0.834c3.851,0.176,7.243,1.875,11.096,1.708c4.373-0.19,7.739-2.735,12.123-2.647
							c1.526,0.03,2.965,0.386,4.45,0.589c1.485,0.203,3.199,0.224,4.379-0.325c0.953-0.443,1.355-1.164,2.191-1.677
							c1.561-0.959,4.163-0.979,6.464-1.043c2.301-0.064,3.959-0.894,5.893-1.603C388.838,98.707,389.309,97.114,388.76,96.235z"></path>
					</g>
					<path style="fill: #ff904b" d="M388.963,93.115c0,6.733-19.48,9.505-42.063,9.505c-22.583,0-39.717-2.64-39.717-9.505
						c0-8.417,18.307-15.24,40.89-15.24C370.655,77.875,388.963,84.698,388.963,93.115z"></path>
				</g>
			</g>
			<path style="opacity: .2; fill: #fff" d="M311.714,96.088c0,0-2.997-4.086,1.603-9.092s18.315-7.619,22.957-7.535
				C336.273,79.461,314.836,86.213,311.714,96.088z"></path>
			<g style="opacity: .2">
				<path d="M340.068,82.748c-3.063,0.403-6.401,1.834-8.256,4.116c-1.855,2.282-2.678,5.254-2.236,8.076
					c3.126-4.28,6.896-8.328,10.571-12.221L340.068,82.748z"></path>
			</g>
			<g style="opacity: .2">
				<path d="M354.36,82.548c-3.467,0.456-7.246,2.076-9.346,4.659c-2.1,2.583-3.031,5.947-2.531,9.141
					c3.538-4.845,7.806-9.427,11.965-13.833L354.36,82.548z"></path>
			</g>
			<g style="opacity: .2">
				<path d="M365.921,84.32c-2.671,0.468-5.544,1.847-7.086,3.917c-1.541,2.07-2.152,4.707-1.66,7.164
					c2.581-3.869,5.736-7.559,8.813-11.109L365.921,84.32z"></path>
			</g>
		</g>
	</g>
</g>
<g id="Character">
	<g>
		<g>
			<polygon style="fill: #263238" points="274.79,429.541 283.759,459.945 293.312,456.859 295.031,426.833 			"></polygon>
			<g>
				<g>
					<path style="fill: #263238" d="M280.687,465.173l8.662-0.065c0,0,1.744-0.944,2.774-0.828c1.026,0.118,4.598,0.771,4.598,0.771
						l23.001-0.173c-0.191-0.963-0.425-1.819-0.689-2.579c-0.322-0.926-0.694-1.709-1.106-2.371
						c-1.443-2.315-3.393-3.128-5.509-3.245c-3.222-0.178-13.409-6.866-13.409-6.866s-3.686-1.258-3.916-5.171
						c-0.087-1.467-2.267-3.242-3.299-3.381c-2.106-0.288-3.266,1.053-3.556,3.158l-0.335,2.445l-4.864-0.72
						c0,0-4.961-2.45-4.703-0.036c0.148,1.378,1.025,7.513,1.582,12.382c0.131,1.135,0.253,2.209,0.36,3.151l0.003,0.001
						C280.521,463.736,280.687,465.173,280.687,465.173z"></path>
				</g>
			</g>
			<path style="fill: #407bff" d="M304.074,452.29c-0.107-0.104-0.272-0.114-0.396-0.03c-0.567,0.383-1.042,0.921-1.363,1.594
				c-0.169,0.355,0.349,0.692,0.52,0.334c0.285-0.598,0.7-1.074,1.195-1.41c0.166-0.112,0.192-0.345,0.047-0.484
				C304.078,452.293,304.076,452.291,304.074,452.29z"></path>
			<path style="fill: #407bff" d="M302.237,451.226c-0.108-0.104-0.272-0.113-0.396-0.03c-0.567,0.383-1.042,0.921-1.363,1.594
				c-0.169,0.355,0.349,0.692,0.52,0.334c0.285-0.598,0.7-1.074,1.196-1.409c0.166-0.112,0.192-0.345,0.047-0.484
				C302.24,451.229,302.238,451.227,302.237,451.226z"></path>
			<path style="fill: #407bff" d="M300.342,450.234c-0.107-0.103-0.272-0.114-0.396-0.03c-0.567,0.383-1.042,0.921-1.363,1.594
				c-0.169,0.354,0.349,0.692,0.52,0.334c0.285-0.598,0.7-1.073,1.196-1.409c0.165-0.112,0.191-0.345,0.047-0.484
				C300.345,450.237,300.344,450.235,300.342,450.234z"></path>
		</g>
		<g>
			<g>
				<g>
					<g>
						<polygon style="fill: #263238" points="237.53,419.935 233.311,450.892 223.222,451.401 219.955,421.558 						"></polygon>
					</g>
				</g>
			</g>
			<g>
				<g>
					<path style="fill: #263238" d="M214.632,465.264h22.566c0,0,0.492-0.948-0.07-3.471c-0.086-0.393-0.198-0.825-0.344-1.296
						c-0.008-0.023-0.013-0.047-0.021-0.07c-0.211-0.698-0.453-1.557-0.711-2.484c-1.034-3.778-2.25-8.714-2.25-8.714
						s-3.755-8.038-8.147-6.031c-3.854,1.76-2.94,6.798-2.94,6.798s-0.378,2.958-3.299,5.567c-1.807,1.612-3.604,2.859-4.468,4.864
						c-0.162,0.375-0.289,0.773-0.38,1.205c-0.01,0.052-0.021,0.107-0.029,0.161C214.361,462.759,214.372,463.892,214.632,465.264z"></path>
				</g>
			</g>
			<g>
				<g>
					<g>
						<path style="fill: #407bff" d="M223.625,451.261c1.269-0.989,2.935-0.861,4.076,0.253c0.307,0.299,0.778-0.171,0.471-0.471
							c-1.425-1.39-3.459-1.467-5.018-0.253C222.816,451.053,223.291,451.522,223.625,451.261L223.625,451.261z"></path>
					</g>
				</g>
			</g>
			<g>
				<g>
					<g>
						<path style="fill: #407bff" d="M222.988,453.368c1.269-0.989,2.935-0.861,4.076,0.253c0.307,0.299,0.778-0.171,0.471-0.471
							c-1.425-1.39-3.459-1.467-5.018-0.253C222.179,453.16,222.654,453.629,222.988,453.368L222.988,453.368z"></path>
					</g>
				</g>
			</g>
			<g>
				<g>
					<g>
						<path style="fill: #407bff" d="M222.348,455.306c1.269-0.989,2.935-0.861,4.076,0.253c0.307,0.3,0.778-0.171,0.471-0.471
							c-1.425-1.39-3.459-1.467-5.018-0.253C221.54,455.098,222.014,455.567,222.348,455.306L222.348,455.306z"></path>
					</g>
				</g>
			</g>
		</g>
		<g>
			<g>
				<g>
					<path style="fill: #263238" d="M218.12,217.95l40.872,10.085l26.802-4.958c0,0,7.693,98.144,9.364,115.049
						c1.671,16.905,2.097,107.566,2.097,107.566l-22.067,0.552c0,0-7.907-93.521-9.696-102.668
						c-1.559-7.972-8.229-62.185-12.63-75.18c-0.442,2.662-0.897,5.334-1.36,7.986c-1.113,11.982-4.683,50.183-6.236,64.399
						c0,0-3.376,81.206-7.295,104.787l-20.525,0.037c-2.709-33.477-2.478-154.934-2.478-154.934l0.004-0.002
						C214.048,245.867,218.12,217.95,218.12,217.95z"></path>
				</g>
			</g>
		</g>
		<g>
			<g>
				<g>
					<path style="fill: #407bff" d="M223.964,133.848c1.614-0.258,3.268-0.488,4.909-0.691c8.632-1.112,17.32-1.727,26.022-1.844
						c1.076,0.009,2.133,0.05,3.173,0.122c4.914,0.302,9.805,0.904,14.645,1.803c0,0,11.612,41.154,15.489,106.056
						c-27.351,4.201-51.522,5.03-72.899,1.314c-0.543-4.651,3.63-22.619,2.681-40.654c-0.407-7.702-1.058-16.191-2.143-25.073
						c-1.489-12.748,0.008-25.808-3.36-38.193C212.481,136.689,215.76,135.137,223.964,133.848z"></path>
				</g>
			</g>
			<path style="opacity: .4; fill: #fff" d="M280.118,176.007l-63.839,4.247c0.133,2.78,1.809,22.423,1.809,22.423l64.585-5.568
				L280.118,176.007z"></path>
			<path style="opacity: .3" d="M284.28,196.346c0.06,0.505-13.278,6.862-13.414,8.048c-0.136,1.186-9.29,16.667-9.29,16.667
				s-0.253,1.868,4.371,1.153c4.624-0.714,19.968-11.327,19.978-11.217C285.935,211.107,284.28,196.346,284.28,196.346z"></path>
			<path style="opacity: .3" d="M216.71,226.029l-0.431,3.511l4.076-1.836c0,0,4.496,5.001,13.376,5.788s14.06-1.461,15.685-3.26
				s2.187-5.474,2.187-5.474l-34.372-3.396L216.71,226.029z"></path>
			<g>
				<g>
					<path style="fill: #9b665d" d="M253.041,223.21c0.801-0.841,0.703-2.604-0.235-3.289c-0.939-0.685-2.158-0.805-3.308-0.975
						c-4.44-0.654-9.321-0.92-12.955-3.554c0.741-1.779,3.399-2.683,4.7-3.832c0.422-0.373,0.849-0.832,0.864-1.395
						c0.019-0.705-0.653-1.274-1.348-1.398c-0.695-0.124-1.401,0.082-2.079,0.277c-5.037,1.449-10.211,2.422-15.43,2.903
						l-5.229,8.757c5.232,7.958,15.356,12.384,24.75,10.82c0.67-0.112,1.392-0.283,1.819-0.811c0.428-0.528,0.305-1.511-0.355-1.673
						c2.658,1.012,5.972-0.202,7.348-2.691c0.759,0.102,1.56-0.337,1.883-1.032C253.789,224.62,253.608,223.725,253.041,223.21z"></path>
				</g>
				<g>
					<g>
						<path style="fill: #7a372c" d="M236.443,228.065c2.621,0.562,5.261,1.031,7.916,1.409c0.472,0.067,0.676-0.655,0.199-0.723
							c-2.654-0.377-5.294-0.847-7.916-1.408C236.172,227.241,235.971,227.964,236.443,228.065L236.443,228.065z"></path>
					</g>
				</g>
				<g>
					<g>
						<path style="fill: #7a372c" d="M238.598,225.133c4.184,0.528,8.369,1.055,12.554,1.583c0.478,0.06,0.473-0.69,0-0.75
							c-4.185-0.528-8.369-1.055-12.554-1.583C238.12,224.323,238.125,225.073,238.598,225.133L238.598,225.133z"></path>
					</g>
				</g>
				<g>
					<g>
						<path style="fill: #7a372c" d="M239.979,221.736c4.415,0.569,8.83,1.137,13.245,1.706c0.477,0.061,0.473-0.689,0-0.75
							c-4.415-0.569-8.83-1.137-13.245-1.706C239.502,220.925,239.507,221.676,239.979,221.736L239.979,221.736z"></path>
					</g>
				</g>
			</g>
			<path style="fill: #407bff" d="M216.278,135.277c-2.903,0.591-5.538,2.128-7.428,4.41c-8.385,10.124-19.894,30.967-25.401,43.86
				c-4.542,10.633-3.883,16.996-0.057,22.307c3.826,5.311,30.37,23.124,34.544,19.754c4.174-3.37,7.6-12.844,5.861-15.278
				c-1.739-2.435-20.486-13.102-20.486-16.621c0-3.518,13.856-25.931,13.856-28.969c0-2.079,4.251-21.383,3.024-30.26
				L216.278,135.277z"></path>
			<path style="fill: #407bff" d="M272.713,133.238c0,0,3.838,0.744,8.22,5.4c4.382,4.656,33.316,32.985,33.368,43.177
				c0.035,6.94-27.138,28.964-30.741,26.914c-4.649-2.644-8.785-7.356-7.087-10.141c1.698-2.785,17.39-17.015,17.886-18.11
				c0.496-1.096-17.836-18.045-17.836-18.045L272.713,133.238z"></path>
			<path style="opacity: .3" d="M278.418,164.199l-2.68-14.717c0,0,8.687,8.575,6.763,18.639L278.418,164.199z"></path>
			<g>
				<g>
					<path style="fill: #9b665d" d="M277.975,198.804c-5.123,0.436-10.287,0.387-15.401-0.144c-0.688-0.072-1.406-0.148-2.055,0.091
						c-0.65,0.239-1.2,0.905-1.061,1.583c0.111,0.541,0.603,0.911,1.075,1.198c1.454,0.885,7.321,1.095,5.199,2.89
						c-3.055,3.17-7.531,4.569-11.705,5.966c-1.081,0.362-2.172,0.774-2.96,1.597c-0.788,0.823-0.064,2.619,0.852,2.724
						c-0.459,0.595-0.965,0.837-0.596,1.876c0.217,0.611,1.058,1.238,1.774,1.008c0.633,1.59,3.103,2.689,7.56,1.333
						c-0.609,0.271-0.559,1.241-0.055,1.677c0.504,0.436,1.241,0.587,1.897,0.47c8.964-1.594,16.871-6.554,20.704-14.666
						c0.248-0.526,0.271-1.134,0.102-1.69C282.194,201.075,281,199.392,277.975,198.804z"></path>
				</g>
				<g>
					<g>
						<path style="fill: #7a372c" d="M267.753,215.95c-2.435,0.994-4.903,1.903-7.401,2.724c-0.456,0.15-0.261,0.875,0.199,0.723
							c2.498-0.822,4.967-1.73,7.401-2.724C268.394,216.493,268.201,215.767,267.753,215.95L267.753,215.95z"></path>
					</g>
				</g>
				<g>
					<g>
						<path style="fill: #7a372c" d="M265.261,213.459c-3.95,1.231-7.9,2.462-11.85,3.692c-0.459,0.143-0.263,0.867,0.199,0.723
							c3.95-1.231,7.9-2.462,11.85-3.692C265.92,214.039,265.724,213.315,265.261,213.459L265.261,213.459z"></path>
					</g>
				</g>
				<g>
					<g>
						<path style="fill: #7a372c" d="M263.342,210.417c-3.706,1.173-7.263,2.758-10.969,3.93c-0.458,0.145-0.263,0.869,0.199,0.723
							c3.706-1.173,7.263-2.758,10.969-3.93C264,210.996,263.804,210.271,263.342,210.417L263.342,210.417z"></path>
					</g>
				</g>
			</g>
			<g style="opacity: .3">
				<g>
					<path d="M295.095,180.815c3.069-1.324,6.521-1.62,9.774-0.862c0.469,0.109,0.67-0.614,0.199-0.723
						c-3.466-0.808-7.087-0.471-10.352,0.937C294.275,180.358,294.656,181.005,295.095,180.815L295.095,180.815z"></path>
				</g>
			</g>
			<g style="opacity: .3">
				<g>
					<path d="M215.12,140.223c4.081,6.787,4.732,15.252,1.767,22.592c-0.181,0.447,0.544,0.642,0.723,0.199
						c3.035-7.513,2.331-16.229-1.842-23.17C215.519,139.432,214.87,139.808,215.12,140.223L215.12,140.223z"></path>
				</g>
			</g>
			<g style="opacity: .3">
				<g>
					<path d="M217.832,206.617c1.603,1.217,3.355,2.223,4.84,3.595c0.294,0.271,0.643,0.564,0.852,0.909
						c0.156,0.257,0.167,0.589,0.175,0.881c0.02,0.735-0.051,1.542-0.319,2.233c-0.175,0.45,0.55,0.645,0.723,0.199
						c0.29-0.745,0.367-1.64,0.346-2.432c-0.01-0.375-0.041-0.782-0.206-1.125c-0.176-0.366-0.5-0.674-0.787-0.954
						c-1.577-1.542-3.5-2.628-5.246-3.953C217.826,205.677,217.452,206.328,217.832,206.617L217.832,206.617z"></path>
				</g>
			</g>
			<g style="opacity: .3">
				<g>
					<path d="M276.901,198.855c1.719-1.971,3.512-3.876,5.376-5.71c0.345-0.339-0.186-0.869-0.53-0.53
						c-1.864,1.835-3.657,3.739-5.376,5.71C276.055,198.686,276.583,199.219,276.901,198.855L276.901,198.855z"></path>
				</g>
			</g>
			<polygon style="opacity: .4; fill: #fff" points="194.011,214.709 205.883,197.108 215.443,204.173 204.576,221.361 			"></polygon>
			<path style="opacity: .4; fill: #fff" d="M283.718,190.98c0,0,9.286,7.939,10.541,12.421c0,0,7.762-6.184,9.35-7.666
				c0,0-7.876-10.892-12.256-12.118L283.718,190.98z"></path>
		</g>
		<g>
			<path style="fill: #9b665d" d="M253.051,131.345c0,0-2.952-2.988-3.921-6.119c-0.606-1.748-0.752-3.623-0.424-5.444
				c0.147-1.013,0.363-2.016,0.648-2.999l-20.42-12.631c2.433,7.901,7.336,22.384,1.918,28.759c0,0,10.64,4.003,16.405,3.679
				C253.023,136.266,253.051,131.345,253.051,131.345z"></path>
			<path style="opacity: .2; enable-background: new" d="M233.473,111.858c0.452,9.607,10.645,12.65,15.669,13.384
				c-0.606-1.748-0.752-3.623-0.424-5.444L233.473,111.858z"></path>
			<path style="fill: #263238" d="M246.744,73.951c9.357-1.939,4.475,5.614,14.78,6.97c0.271,6.265-6.848,13.33-9.56,9.492
				C248.981,86.196,238.96,75.483,246.744,73.951z"></path>
			<path style="fill: #9b665d" d="M224.726,97.6c4.013,10.789,6.051,16.955,13.47,20.85c11.159,5.859,23.354-3.104,22.742-14.914
				c-0.551-10.63-7.02-26.488-19.417-27.47C229.306,75.098,220.714,86.811,224.726,97.6z"></path>
			<g style="opacity: .3">
				<path style="fill: #7a372c" d="M254.558,86.557c-0.653-1.397-1.489-2.952-2.987-3.317c-0.979-0.239-1.991,0.106-2.964,0.365
					c-3.164,0.84-6.563,0.776-9.693-0.182l-0.847,0.367c-0.665,2.151-1.874,4.132-3.483,5.707c-0.728,0.712-1.591,1.446-1.696,2.459
					c-0.116,1.123,0.845,2.157,1.945,2.413c1.1,0.256,2.26-0.114,3.232-0.688s1.811-1.346,2.733-1.997
					c3.469-2.449,7.975-3.06,12.19-2.538c0.543,0.067,1.157,0.133,1.58-0.215C255.228,88.387,254.92,87.332,254.558,86.557z"></path>
			</g>
			<path style="fill: #263238" d="M240.376,95.647c0.339,1.125,1.228,1.849,1.985,1.617c0.756-0.232,1.094-1.332,0.755-2.457
				c-0.339-1.125-1.228-1.849-1.984-1.617C240.375,93.421,240.037,94.521,240.376,95.647z"></path>
			<path style="fill: #263238" d="M251.907,93.097c0.339,1.126,1.228,1.849,1.984,1.618c0.757-0.232,1.095-1.332,0.756-2.458
				c-0.339-1.125-1.227-1.849-1.984-1.617C251.906,90.872,251.567,91.972,251.907,93.097z"></path>
			<path style="fill: #7a372c" d="M249.442,93.297c0,0,5.356,4.504,7.218,6.432c-1.186,1.893-4.162,2.063-4.162,2.063
				L249.442,93.297z"></path>
			<path style="fill: #263238" d="M241.173,87.717c-0.194,0.032-0.369,0.163-0.446,0.359c-0.925,2.324-2.947,2.815-2.968,2.82
				c-0.304,0.071-0.501,0.369-0.439,0.666c0.062,0.297,0.359,0.481,0.662,0.412c0.107-0.024,2.643-0.639,3.789-3.523
				c0.115-0.288-0.026-0.605-0.314-0.709C241.362,87.708,241.266,87.702,241.173,87.717z"></path>
			<path style="fill: #263238" d="M251.982,84.916c-0.104,0.028-0.2,0.084-0.276,0.17c-0.206,0.229-0.184,0.578,0.049,0.778
				c2.344,2.007,4.848,1.323,4.964,1.307c0.3-0.084,0.476-0.389,0.393-0.681c-0.083-0.292-0.391-0.462-0.69-0.382
				c-0.103,0.033-2.038,0.536-3.92-1.075C252.354,84.906,252.158,84.869,251.982,84.916z"></path>
			<path style="fill: #263238" d="M257.912,65.268c-7.594-0.732-10.157,0.096-16.417,2.587c0,0,1.566-3.214,0.929-6.97
				c-14.469,12.462-20.761,6.618-27.785,13.75c-4.488,4.556-0.087,10.313-0.087,10.313s-11.669,7.577,5.922,20.693
				c0.557,1.441,0.706,2.832,0.135,3.739c-1.055,1.677-2.993,2.542-4.818,3.314c2.984,0.848,6.257,0.636,9.106-0.591
				c-0.523,1.847-1.519,3.557-2.865,4.925c3.953,0.257,7.98-1.663,10.271-4.895l-2.911-7.937c0.675-0.072,1.396-0.073,2.183,0.054
				c0.528-2.678,0.679-5.416,0.447-8.136c-0.389-2.127-1.06-4.192-1.993-6.143c0,0,6.495-3.838,6.644-8.462
				c0,0,11.608,3.417,17.805-1.803C260.676,74.486,254.739,67.573,257.912,65.268z"></path>
			<g>
				<path style="fill: #9b665d" d="M223.018,108.091c1.759,2.563,4.581,4.067,7.155,4.485c3.871,0.629,4.049-3.332,2.684-6.701
					c-1.229-3.033-3.312-6.553-7.059-5.648C222.107,101.12,221.007,105.16,223.018,108.091z"></path>
				
					<path style="opacity: .2; fill: none; stroke: #000; stroke-width: .75px; stroke-linecap: round; stroke-linejoin: round; stroke-miterlimit: 10" d="
					M224.688,104.284c0.258-0.792,1.116-1.309,1.965-1.354c0.849-0.045,1.673,0.31,2.349,0.804c0.811,0.594,1.456,1.4,1.851,2.312"></path>
			</g>
			<g>
				<g>
					<path style="fill: #263238" d="M246.314,107.031c1.423-0.851,3.358-0.597,4.515,0.59c0.337,0.346,0.867-0.184,0.53-0.53
						c-1.387-1.424-3.718-1.727-5.424-0.707C245.521,106.631,245.898,107.28,246.314,107.031L246.314,107.031z"></path>
				</g>
			</g>
		</g>
	</g>
</g>
<g id="Lines">
	<g>
		<g>
			<g>
				<path style="fill: #263238" d="M271.115,225.944c2.733-0.477,2.939,4.263,4.514,5.619c1.866,1.606,4.797,0.038,6.422,2.058
					c1.105,1.373,1.366,3.365,2.765,4.516c0.61,0.501,1.359,0.698,2.141,0.608c0.761-0.087,1.448-0.427,2.188-0.598
					c0.595-0.137,2.677,0.079,2.034,1.285c-0.227,0.426,0.42,0.805,0.648,0.378c0.472-0.885-0.01-1.731-0.84-2.189
					c-1.215-0.67-2.338-0.024-3.556,0.268c-2.974,0.712-3.363-2.845-4.715-4.625c-0.644-0.848-1.482-1.33-2.538-1.489
					c-1.785-0.268-3.663,0.225-4.736-1.631c-1.073-1.856-1.566-5.441-4.527-4.924C270.441,225.304,270.643,226.027,271.115,225.944
					L271.115,225.944z"></path>
			</g>
		</g>
		<g>
			<g>
				<path style="fill: #263238" d="M274.216,218.807c2.511-1.666,4.57,2.953,6.946,3.268c2.461,0.326,4.268-2.192,6.713-0.649
					c1.411,0.89,2.619,2.587,4.394,2.756c0.891,0.084,1.653-0.292,2.327-0.847c0.503-0.414,0.946-1,1.527-1.309
					c0.6-0.319,2.075-0.435,2.014,0.624c-0.028,0.482,0.722,0.48,0.75,0c0.05-0.854-0.563-1.39-1.363-1.556
					c-0.94-0.195-1.71,0.175-2.413,0.763c-1.329,1.11-2.331,2.127-4.049,1.078c-1.009-0.616-1.807-1.525-2.808-2.156
					c-0.836-0.527-1.745-0.807-2.737-0.649c-1.71,0.272-3.269,1.811-5.051,0.953c-2.05-0.986-3.903-4.731-6.627-2.923
					C273.438,218.425,273.813,219.075,274.216,218.807L274.216,218.807z"></path>
			</g>
		</g>
	</g>
	<g>
		<g>
			<g>
				<path style="fill: #263238" d="M247.167,194.708c-1.157-0.053-1.511-1.469-1.633-2.4c-0.116-0.883-0.181-1.831-0.693-2.592
					c-1.067-1.587-3.52-0.957-4.475-2.582c-0.753-1.282-0.5-2.97-1.427-4.174c-0.495-0.643-1.213-0.898-2.012-0.9
					c-0.551-0.001-1.111,0.148-1.661,0.073c-0.427-0.059-1.46-0.639-0.96-1.191c0.323-0.357-0.205-0.889-0.53-0.53
					c-0.983,1.085,0.388,2.401,1.525,2.479c0.956,0.066,2.158-0.408,2.925,0.38c0.473,0.487,0.613,1.235,0.755,1.874
					c0.288,1.302,0.554,2.747,1.835,3.44c0.706,0.381,1.512,0.475,2.259,0.743c1.049,0.377,1.442,1.181,1.61,2.229
					c0.246,1.53,0.467,3.809,2.482,3.901C247.65,195.48,247.648,194.73,247.167,194.708L247.167,194.708z"></path>
			</g>
		</g>
		<g>
			<g>
				<path style="fill: #263238" d="M243.491,199.603c-2.069,0.784-2.904-2.839-4.424-3.629c-1.759-0.915-3.782,0.806-5.362-0.697
					c-0.98-0.932-1.557-2.442-2.88-2.976c-0.601-0.243-1.226-0.188-1.819,0.054c-0.442,0.18-0.832,0.458-1.258,0.669
					c-0.402,0.199-2.042,0.47-1.75-0.543c0.134-0.465-0.59-0.663-0.723-0.199c-0.211,0.733,0.225,1.308,0.904,1.577
					c0.9,0.356,1.645-0.017,2.434-0.457c1.16-0.646,2.013-0.639,2.903,0.366c0.581,0.656,1.025,1.43,1.66,2.04
					c0.612,0.587,1.337,0.929,2.196,0.923c1.313-0.009,2.732-0.771,3.846,0.269c1.279,1.193,2.132,4.214,4.474,3.327
					C244.137,200.157,243.943,199.432,243.491,199.603L243.491,199.603z"></path>
			</g>
		</g>
	</g>
</g>
</svg>
