<?xml version="1.0" encoding="utf-8"?>
<!-- Generator: Adobe Illustrator 27.5.0, SVG Export Plug-In . SVG Version: 6.00 Build 0)  -->
<svg version="1.1" xmlns="http://www.w3.org/2000/svg" xmlns:xlink="http://www.w3.org/1999/xlink" x="0px" y="0px" viewBox="0 0 3710 3710" style="enable-background: new 0 0 3710 3710" xml:space="preserve">
<g id="Background">
	<g>
		<g>
			<rect style="fill: #fff" width="3710" height="3710"></rect>
		</g>
	</g>
</g>
<g id="Illustration">
	<g>
		<linearGradient id="SVGID_1_" gradientUnits="userSpaceOnUse" x1="3430.3115" y1="3511.374" x2="1428.3472" y2="1350.5232">
			<stop offset="0" style="stop-color: #dae3fe"></stop>
			<stop offset="1" style="stop-color: #e9effd"></stop>
		</linearGradient>
		<path style="fill: url(&quot;#SVGID_1_&quot;)" d="M3151.325,2279.986c-275.084,642.978-1001.219,919.152-1570.156,872.064
			c-155.343-12.857-467.897-38.726-711.942-269.51c-468.671-443.208-396.491-1369.635,52.161-1915.064
			c57.777-70.24,457.702-540.841,1080.91-534.542c456.279,4.612,776.537,262.358,815.479,294.468
			c49.194,40.564,157.697,136.956,255.485,289.877C3303.028,1376.589,3323.225,1878.189,3151.325,2279.986z"></path>
		<g>
			<g>
				<g style="opacity: .3">
					<path style="fill: #91b3fa" d="M2373.34,949.378c-5.366,0-9.977-4.056-10.546-9.51c-1.251-11.928-2-24.088-2.23-36.141
						c-0.112-5.864,4.55-10.709,10.412-10.82c0.071,0,0.139,0,0.207,0c5.769,0,10.501,4.62,10.611,10.414
						c0.218,11.451,0.931,23.002,2.117,34.332c0.612,5.831-3.62,11.057-9.454,11.667
						C2374.082,949.362,2373.709,949.378,2373.34,949.378z M2374.024,856.883c-0.415,0-0.836-0.025-1.259-0.074
						c-5.823-0.689-9.987-5.968-9.299-11.791c1.416-11.961,3.357-23.98,5.771-35.721c1.18-5.744,6.769-9.431,12.538-8.266
						c5.744,1.182,9.441,6.798,8.261,12.537c-2.293,11.161-4.137,22.578-5.48,33.947
						C2383.918,852.914,2379.331,856.883,2374.024,856.883z M2395.058,766.839c-1.182,0-2.385-0.199-3.563-0.618
						c-5.522-1.97-8.407-8.042-6.439-13.566c4.032-11.323,8.608-22.612,13.602-33.553c2.438-5.334,8.736-7.677,14.068-5.251
						c5.333,2.435,7.685,8.735,5.251,14.068c-4.743,10.389-9.087,21.106-12.917,31.861
						C2403.512,764.126,2399.421,766.839,2395.058,766.839z M2435.706,683.742c-1.954,0-3.93-0.539-5.698-1.667
						c-4.944-3.152-6.395-9.718-3.243-14.661c6.47-10.14,13.454-20.123,20.76-29.671c3.565-4.649,10.225-5.537,14.885-1.978
						c4.656,3.563,5.541,10.227,1.978,14.885c-6.939,9.066-13.575,18.547-19.719,28.186
						C2442.643,682.008,2439.213,683.742,2435.706,683.742z M2493.864,611.797c-2.74,0-5.477-1.054-7.553-3.156
						c-4.123-4.172-4.081-10.895,0.091-15.014c8.535-8.432,17.554-16.618,26.803-24.324c4.502-3.758,11.198-3.152,14.954,1.356
						c3.753,4.504,3.146,11.198-1.359,14.956c-8.792,7.324-17.363,15.105-25.475,23.118
						C2499.255,610.776,2496.559,611.797,2493.864,611.797z M2566.482,554.513c-3.548,0-7.016-1.775-9.027-5.01
						c-3.096-4.981-1.57-11.526,3.409-14.624c10.205-6.345,20.812-12.334,31.523-17.792c5.227-2.663,11.619-0.585,14.281,4.641
						c2.662,5.221,0.585,11.617-4.639,14.28c-10.178,5.188-20.254,10.874-29.951,16.904
						C2570.333,553.998,2568.396,554.513,2566.482,554.513z M2955.546,529.234c-1.47,0-2.961-0.307-4.386-0.954
						c-10.385-4.72-21.117-9.049-31.896-12.865c-5.527-1.957-8.422-8.025-6.464-13.549c1.955-5.529,8.023-8.423,13.552-6.466
						c11.352,4.019,22.655,8.577,33.592,13.546c5.34,2.426,7.7,8.722,5.273,14.06
						C2963.441,526.92,2959.582,529.234,2955.546,529.234z M2649.937,514.772c-4.405,0-8.521-2.762-10.037-7.159
						c-1.912-5.545,1.033-11.588,6.576-13.5c11.362-3.919,23.033-7.391,34.689-10.319c5.692-1.402,11.457,2.02,12.886,7.71
						c1.429,5.686-2.024,11.455-7.712,12.886c-11.07,2.779-22.152,6.076-32.941,9.796
						C2652.251,514.581,2651.083,514.772,2649.937,514.772z M2867.563,500.708c-0.701,0-1.412-0.066-2.125-0.211
						c-11.185-2.277-22.618-4.098-33.977-5.42c-5.825-0.68-9.997-5.952-9.32-11.775c0.68-5.823,5.948-10.024,11.775-9.319
						c11.953,1.393,23.982,3.31,35.752,5.702c5.747,1.17,9.458,6.777,8.289,12.521
						C2876.934,497.237,2872.507,500.708,2867.563,500.708z M2740.176,494.67c-5.358,0-9.964-4.044-10.545-9.489
						c-0.622-5.831,3.6-11.061,9.431-11.688c11.938-1.273,24.093-2.049,36.124-2.298c0.074-0.004,0.151-0.004,0.226-0.004
						c5.76,0,10.489,4.608,10.611,10.393c0.122,5.865-4.529,10.717-10.393,10.837c-11.428,0.24-22.973,0.978-34.316,2.19
						C2740.932,494.649,2740.551,494.67,2740.176,494.67z"></path>
					<path style="fill: #91b3fa" d="M3020.354,566.092c-2.09,0-4.204-0.614-6.051-1.899c-4.494-3.127-9.128-6.209-13.774-9.17
						c-4.946-3.148-6.404-9.713-3.253-14.657c3.148-4.948,9.715-6.412,14.659-3.252c4.888,3.111,9.761,6.354,14.491,9.643
						c4.813,3.347,6.004,9.966,2.656,14.777C3027.018,564.503,3023.713,566.092,3020.354,566.092z"></path>
				</g>
				<g style="opacity: .3">
					<path style="fill: #91b3fa" d="M3192.84,840.012c-5.124,0-9.635-3.716-10.472-8.938c-0.865-5.404-1.858-10.883-2.953-16.279
						c-1.165-5.748,2.549-11.352,8.295-12.517c5.771-1.17,11.352,2.551,12.517,8.295c1.151,5.682,2.198,11.451,3.111,17.141
						c0.927,5.79-3.015,11.235-8.805,12.164C3193.964,839.97,3193.398,840.012,3192.84,840.012z"></path>
					<path style="fill: #91b3fa" d="M2784.992,1319.265c-4.885,0-9.79-0.083-14.71-0.249c-5.86-0.199-10.452-5.109-10.255-10.97
						c0.197-5.86,5.137-10.472,10.968-10.257c11.358,0.382,22.705,0.303,33.855-0.245c5.863-0.278,10.837,4.226,11.126,10.082
						c0.288,5.86-4.228,10.842-10.085,11.128C2798.994,1319.095,2791.962,1319.265,2784.992,1319.265z M2714.518,1313.305
						c-0.593,0-1.196-0.05-1.802-0.154c-11.677-1.995-23.4-4.508-34.84-7.47c-5.676-1.468-9.087-7.262-7.619-12.936
						c1.47-5.678,7.275-9.103,12.94-7.619c10.866,2.812,22.002,5.197,33.098,7.096c5.779,0.987,9.664,6.474,8.676,12.251
						C2724.086,1309.651,2719.596,1313.305,2714.518,1313.305z M2861.373,1312.152c-5.006,0-9.462-3.554-10.422-8.651
						c-1.085-5.765,2.708-11.314,8.471-12.401c11.024-2.073,22.108-4.649,32.949-7.66c5.653-1.559,11.503,1.742,13.071,7.391
						c1.568,5.653-1.742,11.505-7.393,13.073c-11.416,3.169-23.091,5.881-34.7,8.067
						C2862.686,1312.094,2862.024,1312.152,2861.373,1312.152z M2627.01,1288.176c-1.348,0-2.716-0.262-4.039-0.805
						c-10.943-4.508-21.826-9.539-32.344-14.951c-5.213-2.683-7.264-9.083-4.581-14.296c2.684-5.217,9.081-7.27,14.298-4.583
						c9.987,5.138,20.32,9.916,30.714,14.197c5.422,2.231,8.006,8.44,5.773,13.86
						C2635.143,1285.696,2631.184,1288.176,2627.01,1288.176z M2948.357,1285.526c-4.106,0-8.017-2.397-9.751-6.408
						c-2.327-5.383,0.151-11.633,5.535-13.96c10.292-4.446,20.538-9.398,30.457-14.715c5.168-2.771,11.604-0.829,14.375,4.343
						c2.768,5.168,0.825,11.6-4.342,14.37c-10.441,5.599-21.229,10.812-32.066,15.495
						C2951.193,1285.244,2949.763,1285.526,2948.357,1285.526z M3027.394,1240.456c-3.282,0-6.52-1.518-8.598-4.375
						c-3.446-4.745-2.395-11.385,2.349-14.831c9.097-6.611,18.023-13.682,26.527-21.015c4.436-3.836,11.138-3.343,14.974,1.103
						c3.83,4.442,3.334,11.144-1.105,14.976c-8.95,7.718-18.342,15.159-27.916,22.114
						C3031.742,1239.797,3029.559,1240.456,3027.394,1240.456z M3094.725,1179.228c-2.497,0-5.001-0.875-7.021-2.658
						c-4.396-3.878-4.815-10.589-0.935-14.985c7.449-8.44,14.621-17.282,21.32-26.29c3.498-4.703,10.145-5.686,14.856-2.182
						c4.703,3.501,5.682,10.149,2.182,14.856c-7.05,9.477-14.599,18.788-22.435,27.667
						C3100.592,1178.013,3097.665,1179.228,3094.725,1179.228z M3147.096,1104.778c-1.729,0-3.482-0.423-5.105-1.315
						c-5.139-2.824-7.013-9.278-4.189-14.416c5.42-9.858,10.479-20.057,15.036-30.318c2.381-5.358,8.662-7.772,14.012-5.396
						c5.361,2.38,7.774,8.656,5.394,14.014c-4.801,10.808-10.128,21.55-15.833,31.927
						C3154.476,1102.791,3150.844,1104.778,3147.096,1104.778z M3181.86,1020.615c-0.972,0-1.962-0.137-2.943-0.419
						c-5.634-1.621-8.888-7.506-7.264-13.139c3.104-10.783,5.79-21.84,7.979-32.872c1.143-5.753,6.748-9.481,12.482-8.345
						c5.752,1.141,9.489,6.731,8.346,12.484c-2.306,11.612-5.133,23.255-8.403,34.606
						C3190.719,1017.583,3186.471,1020.615,3181.86,1020.615z M3197.273,930.931c-0.218,0-0.437-0.009-0.657-0.021
						c-5.852-0.357-10.308-5.392-9.95-11.243c0.504-8.262,0.759-16.635,0.759-24.897c0-2.99-0.035-5.976-0.099-8.95
						c-0.126-5.864,4.523-10.721,10.385-10.845c5.933-0.245,10.717,4.521,10.845,10.381c0.068,3.132,0.104,6.267,0.104,9.415
						c0,8.689-0.269,17.502-0.8,26.191C3207.518,926.593,3202.841,930.931,3197.273,930.931z"></path>
					<path style="fill: #91b3fa" d="M2546.979,1244.242c-2.111,0-4.241-0.626-6.097-1.929c-4.703-3.305-9.425-6.773-14.034-10.306
						c-4.656-3.567-5.537-10.232-1.97-14.885c3.569-4.653,10.227-5.541,14.885-1.97c4.379,3.356,8.865,6.649,13.33,9.788
						c4.796,3.368,5.954,9.991,2.582,14.79C2553.606,1242.671,2550.318,1244.242,2546.979,1244.242z"></path>
				</g>
				<g>
					<path style="fill: #91b3fa" d="M2561.306,1121.092c1.338,1.64,3.571,2.251,5.557,1.52l56.686-20.846
						c22.346,17.21,47.598,30.982,75.049,40.416l13.825,58.753c0.485,2.061,2.224,3.587,4.33,3.801l72.077,7.302
						c2.107,0.213,4.116-0.934,5.005-2.854l25.327-54.788c28.785-3.739,56.285-12.165,81.629-24.546l51.354,31.79
						c1.8,1.114,4.108,0.964,5.749-0.375l56.129-45.803c1.641-1.339,2.251-3.571,1.52-5.557l-20.845-56.685
						c17.21-22.346,30.981-47.599,40.416-75.049l58.754-13.826c2.061-0.484,3.586-2.223,3.8-4.33l7.302-72.078
						c0.213-2.106-0.933-4.116-2.855-5.004l-54.788-25.327c-3.738-28.785-12.164-56.285-24.545-81.628l31.791-51.355
						c1.113-1.799,0.963-4.109-0.375-5.748l-45.804-56.128c-1.338-1.641-3.571-2.251-5.557-1.52l-56.686,20.846
						c-22.346-17.211-47.598-30.982-75.049-40.416l-13.825-58.755c-0.485-2.06-2.223-3.586-4.33-3.801l-72.078-7.3
						c-2.106-0.214-4.116,0.933-5.004,2.855l-25.327,54.788c-28.785,3.737-56.285,12.165-81.629,24.545l-51.354-31.79
						c-1.8-1.115-4.11-0.964-5.75,0.374l-56.128,45.804c-1.64,1.338-2.25,3.57-1.521,5.557l20.845,56.685
						c-17.211,22.346-30.981,47.599-40.416,75.049l-58.754,13.826c-2.06,0.484-3.587,2.224-3.799,4.331l-7.301,72.076
						c-0.213,2.107,0.933,4.116,2.854,5.005l54.788,25.327c3.739,28.784,12.165,56.284,24.545,81.628l-31.789,51.354
						c-1.115,1.8-0.964,4.108,0.374,5.75L2561.306,1121.092z"></path>
					<g>
						<path style="fill: #bdd0fb" d="M2784.802,964.745c-35.498,0-66.667-26.066-71.995-62.207
							c-5.854-39.728,21.701-76.805,61.425-82.662c19.246-2.841,38.442,1.991,54.051,13.591
							c15.613,11.6,25.774,28.588,28.608,47.832c5.854,39.728-21.701,76.806-61.425,82.662
							C2791.885,964.488,2788.321,964.745,2784.802,964.745z M2784.968,836.076c-2.741,0-5.497,0.199-8.259,0.606
							c-30.457,4.488-51.583,32.922-47.096,63.377c4.49,30.458,32.914,51.598,63.378,47.098
							c30.457-4.487,51.583-32.922,47.096-63.376c-2.175-14.757-9.964-27.78-21.936-36.676
							C2808.421,839.875,2796.873,836.076,2784.968,836.076z"></path>
					</g>
					<path style="fill: #bdd0fb" d="M2786.291,1069.923c-6.096,0-12.229-0.307-18.377-0.929l0,0
						c-1.935-0.195-3.868-0.423-5.796-0.68c-9.508-1.273-18.9-3.301-28.03-6.051c-0.125-0.037-0.249-0.075-0.373-0.112
						c-0.353-0.108-0.705-0.216-1.058-0.328c-0.686-0.212-1.37-0.432-2.053-0.651c-1.796-0.581-2.939-2.244-2.941-4.036
						c0-0.435,0.068-0.879,0.209-1.315c0.722-2.231,3.119-3.446,5.348-2.729c11.482,3.72,23.442,6.226,35.547,7.449
						c60.131,6.101,116.236-19.978,151.175-64.222c19.437-24.607,32.323-54.837,35.709-88.282c0.595-5.865,0.89-11.716,0.887-17.531
						c-0.004-39.135-13.356-76.764-38.434-107.492c-28.804-35.299-69.631-57.268-114.956-61.858
						c-93.611-9.473-177.407,58.939-186.884,152.504c-0.585,5.769-0.875,11.547-0.873,17.307
						c0.004,24.964,5.471,49.649,16.094,72.265c0.274,0.585,0.404,1.199,0.403,1.804c0,1.593-0.902,3.123-2.441,3.844
						c-2.127,0.991-4.653,0.091-5.651-2.04c-11.152-23.744-16.894-49.661-16.898-75.869c-0.002-6.047,0.303-12.11,0.914-18.166
						c9.95-98.236,97.991-170.048,196.191-160.102c47.585,4.819,90.442,27.883,120.681,64.94
						c26.328,32.258,40.344,71.763,40.35,112.847c0,6.105-0.309,12.247-0.931,18.402c-4.822,47.587-27.883,90.447-64.938,120.685
						C2866.9,1055.909,2827.383,1069.923,2786.291,1069.923z"></path>
				</g>
			</g>
			<g>
				<g style="opacity: .3">
					<path style="fill: #91b3fa" d="M2011.016,1229.179c-2.837,0-5.45-1.851-6.289-4.713c-1.569-5.341-2.997-10.804-4.243-16.234
						c-0.81-3.529,1.393-7.044,4.925-7.858c3.532-0.826,7.047,1.396,7.858,4.925c1.188,5.175,2.548,10.381,4.044,15.479
						c1.021,3.471-0.97,7.115-4.445,8.14C2012.249,1229.096,2011.628,1229.179,2011.016,1229.179z"></path>
					<path style="fill: #91b3fa" d="M2001.311,1179.676c-3.323,0-6.173-2.517-6.516-5.891c-0.974-9.536-1.467-19.232-1.467-28.812
						c0-2.017,0.023-4.041,0.064-6.071c0.08-3.624,3.269-6.359,6.695-6.423c3.621,0.077,6.493,3.074,6.42,6.692
						c-0.041,1.94-0.064,3.875-0.064,5.802c0,9.139,0.471,18.386,1.396,27.479c0.369,3.605-2.254,6.821-5.856,7.192
						C2001.756,1179.663,2001.532,1179.676,2001.311,1179.676z M2002.751,1111.601c-0.31,0-0.628-0.019-0.941-0.064
						c-3.586-0.519-6.074-3.843-5.559-7.428c1.653-11.502,4.035-23.004,7.08-34.179c0.951-3.497,4.573-5.546,8.05-4.604
						c3.496,0.954,5.555,4.553,4.604,8.05c-2.904,10.663-5.175,21.633-6.753,32.603
						C2008.761,1109.245,2005.96,1111.601,2002.751,1111.601z M2020.657,1045.91c-0.832,0-1.677-0.161-2.495-0.493
						c-3.349-1.377-4.944-5.213-3.567-8.562c4.419-10.727,9.554-21.3,15.273-31.412c1.784-3.157,5.773-4.265,8.937-2.479
						c3.151,1.78,4.262,5.783,2.481,8.934c-5.453,9.644-10.352,19.718-14.563,29.952
						C2025.681,1044.379,2023.235,1045.91,2020.657,1045.91z M2054.167,986.627c-1.358,0-2.725-0.422-3.9-1.287
						c-2.908-2.158-3.52-6.269-1.361-9.177c6.926-9.337,14.489-18.322,22.488-26.711c2.501-2.619,6.654-2.709,9.27-0.218
						c2.622,2.497,2.721,6.647,0.221,9.273c-7.624,7.993-14.841,16.567-21.444,25.469
						C2058.153,985.712,2056.174,986.627,2054.167,986.627z M2101.137,937.329c-1.896,0-3.779-0.82-5.076-2.401
						c-2.295-2.798-1.885-6.929,0.913-9.228c8.979-7.358,18.495-14.236,28.287-20.435c3.061-1.947,7.112-1.031,9.049,2.03
						c1.937,3.061,1.028,7.115-2.03,9.048c-9.344,5.918-18.421,12.475-26.986,19.501
						C2104.073,936.843,2102.6,937.329,2101.137,937.329z M2158.641,900.929c-2.456,0-4.813-1.39-5.933-3.76
						c-1.546-3.272-0.144-7.179,3.129-8.728c10.496-4.957,21.402-9.305,32.411-12.917c3.455-1.121,7.146,0.75,8.277,4.188
						c1.13,3.439-0.746,7.147-4.185,8.274c-10.5,3.445-20.893,7.589-30.899,12.315
						C2160.534,900.731,2159.58,900.929,2158.641,900.929z M2223.283,879.699c-3.074,0-5.818-2.171-6.429-5.296
						c-0.695-3.554,1.623-7,5.177-7.697c11.355-2.222,22.997-3.759,34.608-4.573c3.624-0.192,6.75,2.479,6.999,6.09
						c0.253,3.612-2.472,6.744-6.083,7c-11.076,0.769-22.18,2.236-33.006,4.355C2224.123,879.661,2223.699,879.699,2223.283,879.699
						z M2325.097,878.867c-0.378,0-0.765-0.032-1.153-0.102c-9.414-1.672-19.083-2.857-28.744-3.522
						c-1.463-0.109-2.9-0.199-4.335-0.269c-3.619-0.192-6.398-3.272-6.209-6.89c0.183-3.625,3.295-6.507,6.888-6.212
						c1.531,0.083,3.058,0.173,4.592,0.288c10.093,0.698,20.231,1.94,30.102,3.695c3.567,0.634,5.943,4.035,5.309,7.602
						C2330.983,876.632,2328.219,878.867,2325.097,878.867z"></path>
				</g>
				<g style="opacity: .3">
					<path style="fill: #91b3fa" d="M2280.42,1427.915c-3.58,0-6.507-2.882-6.555-6.474c-0.048-3.619,2.85-6.596,6.471-6.641
						c10.903-0.141,21.889-0.948,32.654-2.401c3.571-0.449,6.894,2.03,7.378,5.622c0.484,3.592-2.036,6.891-5.623,7.378
						c-11.29,1.517-22.808,2.369-34.236,2.517C2280.481,1427.915,2280.448,1427.915,2280.42,1427.915z M2246.908,1426.333
						c-0.238,0-0.471-0.013-0.711-0.039c-11.351-1.217-22.744-3.138-33.861-5.706c-3.529-0.82-5.728-4.335-4.912-7.864
						c0.813-3.535,4.354-5.719,7.864-4.918c10.608,2.453,21.479,4.284,32.311,5.449c3.599,0.384,6.206,3.619,5.819,7.217
						C2253.056,1423.842,2250.212,1426.333,2246.908,1426.333z M2346.775,1418.949c-2.908,0-5.565-1.947-6.34-4.893
						c-0.919-3.497,1.172-7.083,4.675-8.005c10.551-2.779,21.018-6.218,31.117-10.234c3.378-1.325,7.179,0.308,8.514,3.676
						c1.338,3.362-0.307,7.179-3.672,8.517c-10.586,4.207-21.563,7.813-32.622,10.72
						C2347.886,1418.879,2347.326,1418.949,2346.775,1418.949z M2181.641,1411.207c-0.746,0-1.504-0.128-2.247-0.397
						c-10.733-3.913-21.332-8.53-31.499-13.724c-3.227-1.646-4.505-5.597-2.859-8.825c1.646-3.215,5.597-4.495,8.822-2.856
						c9.696,4.95,19.798,9.349,30.031,13.083c3.401,1.242,5.155,5.008,3.913,8.408
						C2186.831,1409.555,2184.318,1411.207,2181.641,1411.207z M2408.99,1394.211c-2.322,0-4.573-1.235-5.76-3.413
						c-1.739-3.182-0.567-7.166,2.609-8.901c9.552-5.213,18.882-11.066,27.736-17.406c2.949-2.114,7.044-1.428,9.151,1.518
						c2.107,2.946,1.428,7.044-1.517,9.151c-9.286,6.641-19.068,12.782-29.081,18.251
						C2411.129,1393.955,2410.05,1394.211,2408.99,1394.211z M2463.457,1355.268c-1.777,0-3.545-0.718-4.838-2.127
						c-2.447-2.67-2.267-6.82,0.403-9.266c8.043-7.372,15.709-15.293,22.782-23.542c2.36-2.754,6.503-3.068,9.248-0.711
						c2.75,2.357,3.067,6.493,0.711,9.241c-7.416,8.652-15.45,16.958-23.878,24.681
						C2466.626,1354.698,2465.038,1355.268,2463.457,1355.268z M2507.029,1304.394c-1.249,0-2.51-0.352-3.628-1.101
						c-3.017-2.005-3.833-6.078-1.826-9.094c6.049-9.075,11.588-18.604,16.465-28.319c1.626-3.228,5.568-4.541,8.802-2.914
						c3.237,1.626,4.543,5.565,2.917,8.805c-5.117,10.183-10.925,20.179-17.265,29.702
						C2511.23,1303.37,2509.149,1304.394,2507.029,1304.394z"></path>
					<path style="fill: #91b3fa" d="M2121.713,1380.589c-1.265,0-2.542-0.365-3.669-1.127c-4.649-3.145-9.225-6.442-13.605-9.798
						c-2.872-2.203-3.42-6.321-1.217-9.197c2.207-2.863,6.318-3.413,9.197-1.217c4.175,3.202,8.543,6.347,12.978,9.35
						c3,2.03,3.784,6.109,1.755,9.106C2125.882,1379.578,2123.816,1380.589,2121.713,1380.589z"></path>
				</g>
				<g>
					<path style="fill: #91b3fa" d="M2127.164,1295.874c0.895,1.097,2.389,1.506,3.718,1.017l37.932-13.949
						c14.953,11.516,31.85,20.731,50.219,27.045l9.251,39.315c0.324,1.379,1.488,2.4,2.897,2.543l48.231,4.886
						c1.41,0.142,2.754-0.625,3.349-1.91l16.947-36.662c19.262-2.502,37.664-8.14,54.623-16.424l34.364,21.273
						c1.205,0.745,2.75,0.645,3.848-0.251l37.559-30.649c1.098-0.896,1.506-2.39,1.017-3.719l-13.949-37.931
						c11.517-14.953,20.731-31.851,27.045-50.22l39.315-9.251c1.379-0.325,2.4-1.488,2.543-2.897l4.885-48.231
						c0.143-1.41-0.624-2.755-1.91-3.348l-36.662-16.948c-2.501-19.262-8.14-37.664-16.424-54.622l21.272-34.365
						c0.745-1.204,0.645-2.749-0.25-3.846l-30.65-37.559c-0.895-1.098-2.389-1.506-3.719-1.017l-37.932,13.95
						c-14.952-11.517-31.85-20.732-50.219-27.045l-9.252-39.316c-0.325-1.378-1.487-2.4-2.897-2.543l-48.231-4.885
						c-1.409-0.143-2.754,0.624-3.348,1.91l-16.947,36.662c-19.262,2.501-37.664,8.14-54.623,16.424l-34.363-21.272
						c-1.205-0.746-2.75-0.645-3.847,0.25l-37.559,30.649c-1.097,0.896-1.506,2.389-1.017,3.719l13.948,37.931
						c-11.517,14.953-20.731,31.851-27.044,50.22l-39.316,9.251c-1.378,0.324-2.4,1.488-2.542,2.898l-4.886,48.23
						c-0.142,1.41,0.625,2.754,1.91,3.349l36.662,16.948c2.502,19.261,8.14,37.663,16.424,54.622l-21.272,34.364
						c-0.746,1.205-0.645,2.749,0.25,3.847L2127.164,1295.874z"></path>
					<g>
						<path style="fill: #bdd0fb" d="M2276.645,1192.132c-10.579,0-20.838-3.375-29.484-9.798
							c-10.634-7.903-17.553-19.475-19.484-32.584c-3.99-27.05,14.777-52.308,41.837-56.304
							c27.102-3.945,52.321,14.787,56.308,41.843c1.934,13.11-1.355,26.186-9.257,36.817c-7.902,10.637-19.474,17.56-32.587,19.487
							C2281.528,1191.953,2279.075,1192.132,2276.645,1192.132z M2276.77,1106.03c-1.765,0-3.548,0.128-5.344,0.391
							c-19.903,2.939-33.707,21.517-30.774,41.421c1.422,9.638,6.51,18.156,14.332,23.964c7.826,5.815,17.441,8.223,27.086,6.814
							l0,0c9.641-1.422,18.156-6.513,23.967-14.333c5.815-7.826,8.233-17.444,6.811-27.089
							C2310.179,1119.094,2294.557,1106.03,2276.77,1106.03z"></path>
					</g>
					<path style="fill: #bdd0fb" d="M2277.586,1265.343c-4.15,0-8.332-0.212-12.545-0.634c-8.367-0.845-16.657-2.542-24.658-5.053
						c-0.359-0.115-0.718-0.231-1.076-0.346c-2.773-0.897-4.537-3.465-4.541-6.231c0-0.672,0.105-1.357,0.323-2.03
						c1.115-3.445,4.816-5.316,8.258-4.214c7.448,2.415,15.19,4.034,23.01,4.823h0.003c0.429,0.045,0.861,0.083,1.287,0.121
						c18.524,1.697,36.769-1.287,53.409-8.459c9.032-3.894,17.595-9.03,25.469-15.338c0.064-0.051,0.128-0.102,0.192-0.153
						c0.196-0.161,0.391-0.314,0.583-0.474c22.849-18.649,37.073-45.078,40.044-74.421c0.388-3.798,0.576-7.583,0.576-11.348
						c-0.003-25.334-8.649-49.695-24.883-69.592c-18.649-22.85-45.078-37.067-74.418-40.038
						c-29.324-2.959-58.087,5.661-80.94,24.303c-22.849,18.648-37.073,45.078-40.044,74.421c-0.381,3.733-0.567,7.474-0.567,11.201
						c0.003,16.164,3.541,32.142,10.419,46.781c0.423,0.903,0.625,1.85,0.622,2.786c0,2.459-1.393,4.823-3.769,5.937
						c-3.282,1.531-7.183,0.134-8.726-3.151c-7.694-16.381-11.655-34.261-11.662-52.34c0-4.175,0.208-8.357,0.631-12.533
						c3.327-32.833,19.238-62.4,44.805-83.264c25.564-20.858,57.707-30.541,90.55-27.192c32.83,3.323,62.397,19.231,83.259,44.802
						c18.165,22.254,27.835,49.509,27.838,77.854c0,4.207-0.211,8.447-0.641,12.692
						C2393.953,1217.812,2340.147,1265.343,2277.586,1265.343z"></path>
				</g>
			</g>
		</g>
		<g>
			<path style="fill: #7d97f4" d="M1663.689,3163.537H624.183V1716.864c0-75.989,61.601-137.589,137.589-137.589h885.973
				c75.988,0,137.589,61.601,137.589,137.589v1325.027C1785.335,3109.074,1730.872,3163.537,1663.689,3163.537z"></path>
			<path style="fill: #91b3fa" d="M1611.403,3163.537H450.252V1619.699c0-22.326,18.099-40.424,40.424-40.424h1080.303
				c22.326,0,40.424,18.099,40.424,40.424V3163.537z"></path>
		</g>
		<g>
			<g>
				
					<linearGradient id="SVGID_00000120529204890761587980000009421850032443144882_" gradientUnits="userSpaceOnUse" x1="2668.1641" y1="2328.7341" x2="2391.3625" y2="2828.4138">
					<stop offset="0" style="stop-color: #ff928e"></stop>
					<stop offset="1" style="stop-color: #fe7062"></stop>
				</linearGradient>
				<path style="fill: url(&quot;#SVGID_00000120529204890761587980000009421850032443144882_&quot;)" d="M2842.156,2569.835
					c0,0-148.939-24.952-157.054-24.952h-414.621c-27.675,0-50.318,22.643-50.318,50.318v45.497
					c0,27.675,22.643,50.318,50.318,50.318h414.621c3.919,0,7.719-0.499,11.383-1.356
					C2745.041,2681.627,2793.6,2641.725,2842.156,2569.835z"></path>
				
					<linearGradient id="SVGID_00000031901182133627619070000017279484035595007383_" gradientUnits="userSpaceOnUse" x1="1876.5009" y1="1481.4042" x2="2737.5605" y2="2073.0525">
					<stop offset="0" style="stop-color: #e1473d"></stop>
					<stop offset="1" style="stop-color: #e9605a"></stop>
				</linearGradient>
				<path style="fill: url(&quot;#SVGID_00000031901182133627619070000017279484035595007383_&quot;)" d="M2840.557,2575.97
					c565.118-1342.902-481.8-1344.064-351.406-73.221L2840.557,2575.97z"></path>
				
					<linearGradient id="SVGID_00000037663338720220106240000003504767953210380176_" gradientUnits="userSpaceOnUse" x1="2599.4558" y1="2608.187" x2="2767.9277" y2="1587.1464">
					<stop offset="0" style="stop-color: #ff928e"></stop>
					<stop offset="1" style="stop-color: #fe7062"></stop>
				</linearGradient>
				<path style="fill: url(&quot;#SVGID_00000037663338720220106240000003504767953210380176_&quot;)" d="M2801.651,2563.106
					c565.118-1368.53-512.099-1331.919-381.706-36.823L2801.651,2563.106z"></path>
				<g>
					
						<linearGradient id="SVGID_00000098912784023648690380000005534586883170334088_" gradientUnits="userSpaceOnUse" x1="12957.2227" y1="3107.9224" x2="13052.3809" y2="2509.3499" gradientTransform="matrix(1 0 0 1 -10487.1201 0)">
						<stop offset="0" style="stop-color: #ff928e"></stop>
						<stop offset="1" style="stop-color: #fe7062"></stop>
					</linearGradient>
					
						<rect x="2482.458" y="2653.671" style="fill: url(&quot;#SVGID_00000098912784023648690380000005534586883170334088_&quot;)" width="44.027" height="476.123"></rect>
					
						<linearGradient id="SVGID_00000013883731725628191410000011565401380685427355_" gradientUnits="userSpaceOnUse" x1="12993.9219" y1="3111.303" x2="13093.2314" y2="2486.614" gradientTransform="matrix(1 0 0 1 -10487.1201 0)">
						<stop offset="0" style="stop-color: #ff928e"></stop>
						<stop offset="1" style="stop-color: #fe7062"></stop>
					</linearGradient>
					<path style="fill: url(&quot;#SVGID_00000013883731725628191410000011565401380685427355_&quot;)" d="M2697.277,3138.974h-385.611v-25.804
						c0-1.577,1.278-2.855,2.855-2.855h379.678c1.699,0,3.077,1.378,3.077,3.078V3138.974z"></path>
				</g>
			</g>
			<g>
				
					<linearGradient id="SVGID_00000000190134942954000060000008141163517666359700_" gradientUnits="userSpaceOnUse" x1="1024.6298" y1="2973.0269" x2="946.9099" y2="3125.8757" gradientTransform="matrix(-1 0 0 1 3188.5061 0)">
					<stop offset="0" style="stop-color: #09005d"></stop>
					<stop offset="1" style="stop-color: #1a0f91"></stop>
				</linearGradient>
				<path style="fill: url(&quot;#SVGID_00000000190134942954000060000008141163517666359700_&quot;)" d="M2271.033,3064.365
					c0,0-125.72,90.619-103.891,151.5c0,0,137.555-59.349,154.173-106.099c16.619-46.75-2.811-67.399-2.811-67.399
					L2271.033,3064.365z"></path>
				
					<linearGradient id="SVGID_00000163052274692951611820000001455620744949034406_" gradientUnits="userSpaceOnUse" x1="876.8397" y1="3033.854" x2="954.2629" y2="3033.854" gradientTransform="matrix(-1 0 0 1 3188.5061 0)">
					<stop offset="0" style="stop-color: #febbba"></stop>
					<stop offset="1" style="stop-color: #ff928e"></stop>
				</linearGradient>
				<path style="fill: url(&quot;#SVGID_00000163052274692951611820000001455620744949034406_&quot;)" d="M2289.925,2988.419l20.557,59.429
					c3.102,8.968,0,19.18-8.022,24.25c-4.017,2.538-9.508,4.885-17.012,6.587c-10.59,2.401-21.522-2.491-26.615-12.081
					l-24.59-46.305L2289.925,2988.419z"></path>
				
					<linearGradient id="SVGID_00000047040694206978586180000011577245853881706385_" gradientUnits="userSpaceOnUse" x1="769.7" y1="2828.9966" x2="1098.713" y2="2367.8599" gradientTransform="matrix(-1 0 0 1 3188.5061 0)">
					<stop offset="0" style="stop-color: #09005d"></stop>
					<stop offset="1" style="stop-color: #1a0f91"></stop>
				</linearGradient>
				<path style="fill: url(&quot;#SVGID_00000047040694206978586180000011577245853881706385_&quot;)" d="M2489.978,2453.507
					c0,0-258.225,44.754-368.993,147.08c-110.769,102.326,101.67,428.733,101.67,428.733s34.806-0.215,76.986-36.368
					c0,0-125.961-245.487-17.406-317.076c122.043-80.484,262.69-98.61,262.69-98.61l-52.449-115.869L2489.978,2453.507z"></path>
				
					<linearGradient id="SVGID_00000107581604778103230070000003385549201168402072_" gradientUnits="userSpaceOnUse" x1="979.5261" y1="3127.5676" x2="710.0969" y2="3479.8977" gradientTransform="matrix(-1 0 0 1 3188.5061 0)">
					<stop offset="0" style="stop-color: #09005d"></stop>
					<stop offset="1" style="stop-color: #1a0f91"></stop>
				</linearGradient>
				<path style="fill: url(&quot;#SVGID_00000107581604778103230070000003385549201168402072_&quot;)" d="M2188.986,3182.193
					c27.652-12.802,105.937-67.592,119.133-70.011c13.196-2.417,36.085,13.09,36.085,13.09s5.566,10.013-0.387,27.478
					c-18.375,22.233-59.173,64.616-114.02,80.409c-40.345,11.617-68.563,0.788-86.139-11.885
					C2153.327,3206.546,2170.571,3190.719,2188.986,3182.193z"></path>
				
					<linearGradient id="SVGID_00000151542109478213546830000015560119099761817530_" gradientUnits="userSpaceOnUse" x1="844.6893" y1="3203.8748" x2="1052.8768" y2="3203.8748" gradientTransform="matrix(-1 0 0 1 3188.5061 0)">
					<stop offset="0" style="stop-color: #4042e2"></stop>
					<stop offset="1" style="stop-color: #4f52ff"></stop>
				</linearGradient>
				<path style="fill: url(&quot;#SVGID_00000151542109478213546830000015560119099761817530_&quot;)" d="M2229.797,3233.158
					c54.847-15.793,95.645-58.176,114.02-80.409c-4.025,11.801-13.303,27.001-33.132,44.824
					c-49.175,44.197-143.094,60.129-163.09,57.059c-16.025-2.46-14.514-17.252-3.937-33.36
					C2161.233,3233.947,2189.452,3244.776,2229.797,3233.158z"></path>
				
					<linearGradient id="SVGID_00000150814562994955580080000002990419655100842389_" gradientUnits="userSpaceOnUse" x1="820.8535" y1="3105.3035" x2="893.517" y2="3105.3035" gradientTransform="matrix(-1 0 0 1 3188.5061 0)">
					<stop offset="0" style="stop-color: #febbba"></stop>
					<stop offset="1" style="stop-color: #ff928e"></stop>
				</linearGradient>
				<path style="fill: url(&quot;#SVGID_00000150814562994955580080000002990419655100842389_&quot;)" d="M2367.653,3086.593
					c-0.31,7.619-15.882,33.746-24.982,48.405c-4.325,6.966-11.902,11.222-20.101,11.244c-5.2,0.014-11.179-0.439-16.607-1.997
					c-8.151-2.34-12.726-11.021-10.343-19.159l17.783-60.722L2367.653,3086.593z"></path>
				
					<linearGradient id="SVGID_00000139996830928737077280000015866587528419977901_" gradientUnits="userSpaceOnUse" x1="651.1105" y1="3058.7871" x2="669.2453" y2="2442.2095" gradientTransform="matrix(-1 0 0 1 3188.5061 0)">
					<stop offset="0" style="stop-color: #09005d"></stop>
					<stop offset="1" style="stop-color: #1a0f91"></stop>
				</linearGradient>
				<path style="fill: url(&quot;#SVGID_00000139996830928737077280000015866587528419977901_&quot;)" d="M2738.544,2375.996
					c0,0,57.347,153.343,0,199.975c-57.347,46.632-194.154,99.134-224.715,192.015c-30.562,92.881-82.423,273.39-151.827,337.318
					c0,0-48.764-4.724-67.013-24.155c0,0,39.528-269.473,65.598-338.617c22.576-59.878,55.84-146.307,119.586-194.614
					c18.248-13.828,15.069-35.732,6.609-57.007l-15.407-38.742L2738.544,2375.996z"></path>
				
					<linearGradient id="SVGID_00000157272884393591208870000006258888584430599834_" gradientUnits="userSpaceOnUse" x1="2087.3525" y1="2420.0454" x2="1717.4916" y2="2916.9756">
					<stop offset="0" style="stop-color: #4042e2"></stop>
					<stop offset="1" style="stop-color: #4f52ff"></stop>
				</linearGradient>
				<path style="fill: url(&quot;#SVGID_00000157272884393591208870000006258888584430599834_&quot;)" d="M2140.442,2255.81
					c96.156,5.797,66.193-147.821,64.46-153.931l145.94,103.081c0,0-7.726,82.151-129.063,125.244
					c-30.699,10.901-58.755,11.383-83.562,6.052C2148.796,2305.408,2146.645,2277.728,2140.442,2255.81z"></path>
				
					<linearGradient id="SVGID_00000062188612079415558480000000907442277744028850_" gradientUnits="userSpaceOnUse" x1="1042.8829" y1="2267.3762" x2="1296.3578" y2="2267.3762" gradientTransform="matrix(-1 0 0 1 3188.5061 0)">
					<stop offset="0" style="stop-color: #febbba"></stop>
					<stop offset="1" style="stop-color: #ff928e"></stop>
				</linearGradient>
				<path style="fill: url(&quot;#SVGID_00000062188612079415558480000000907442277744028850_&quot;)" d="M1954.516,2209.574
					c35.832-24.924,76.425,0,76.425,0c47.909,31.333,83.354,44.659,109.501,46.236c6.203,21.918,8.354,49.598-2.224,80.446
					c-53.672-11.537-92.07-50.38-108.755-70.311c-6.007-7.175-16.644-8.422-23.989-2.624c-7.462,5.89-14.707,13.958-13.394,22.449
					c2.591,16.745-16.839,22.067-18.304,15.995c-1.464-6.073,6.647-42.073,6.647-42.073s-38.86,39.078-54.03,54.093
					c-15.17,15.017-34.245,0-34.245,0S1918.684,2234.499,1954.516,2209.574z"></path>
				
					<linearGradient id="SVGID_00000112606903491563970270000010713346837268941475_" gradientUnits="userSpaceOnUse" x1="925.9752" y1="1963.8186" x2="356.0303" y2="2378.3245" gradientTransform="matrix(-1 0 0 1 3188.5061 0)">
					<stop offset="0" style="stop-color: #4042e2"></stop>
					<stop offset="1" style="stop-color: #4f52ff"></stop>
				</linearGradient>
				<path style="fill: url(&quot;#SVGID_00000112606903491563970270000010713346837268941475_&quot;)" d="M2588.801,1864.641
					c0,0-139.89-56.011-400.228,158.922c0,0-21.746,45.011,1.977,85.075c23.723,40.064,249.757,235.276,280.825,343.532
					c0,0,134.662,43.756,273.926-60.004C2745.3,2392.167,2733.01,2090.876,2588.801,1864.641z"></path>
				
					<linearGradient id="SVGID_00000105394204937768656410000009797954975973280191_" gradientUnits="userSpaceOnUse" x1="801.0307" y1="1893.2948" x2="969.2085" y2="1893.2948" gradientTransform="matrix(-1 0 0 1 3188.5061 0)">
					<stop offset="0" style="stop-color: #febbba"></stop>
					<stop offset="1" style="stop-color: #ff928e"></stop>
				</linearGradient>
				<path style="fill: url(&quot;#SVGID_00000105394204937768656410000009797954975973280191_&quot;)" d="M2312.255,1814.657l68.864,83.483
					c6.837,8.288,8.344,19.819,3.615,29.467c-9.558,19.499-32.238,47.884-82.536,43.959c-14.963-1.168-28.213-10.196-34.749-23.707
					l-48.151-99.539L2312.255,1814.657z"></path>
				
					<linearGradient id="SVGID_00000045582195768715567300000003862861167359310994_" gradientUnits="userSpaceOnUse" x1="844.2405" y1="1851.4333" x2="274.2949" y2="2265.9397" gradientTransform="matrix(-1 0 0 1 3188.5061 0)">
					<stop offset="0" style="stop-color: #4042e2"></stop>
					<stop offset="1" style="stop-color: #4f52ff"></stop>
				</linearGradient>
				<path style="fill: url(&quot;#SVGID_00000045582195768715567300000003862861167359310994_&quot;)" d="M2697.105,2222.186
					c16.24-66.138-148.252-213.586-148.252-213.586l39.948-143.958c0,0,355.191,236.454,264.675,426.604
					c-12.976,27.259-30.21,46.354-50.192,59.122C2774.683,2273.38,2729.104,2238.074,2697.105,2222.186z"></path>
				
					<linearGradient id="SVGID_00000063626750963160566330000011763327925737163684_" gradientUnits="userSpaceOnUse" x1="2858.5562" y1="1497.5137" x2="2722.4109" y2="1846.9532">
					<stop offset="0" style="stop-color: #09005d"></stop>
					<stop offset="1" style="stop-color: #1a0f91"></stop>
				</linearGradient>
				<path style="fill: url(&quot;#SVGID_00000063626750963160566330000011763327925737163684_&quot;)" d="M2697.222,2212.556
					c1.746,0,3.334-1.184,3.77-2.96c16.606-67.621-142.648-211.317-149.434-217.403c-1.594-1.427-4.048-1.301-5.49,0.298
					c-1.432,1.599-1.295,4.058,0.298,5.49c1.629,1.457,162.58,146.636,147.076,209.763c-0.511,2.085,0.764,4.19,2.849,4.7
					C2696.599,2212.521,2696.913,2212.556,2697.222,2212.556z"></path>
				
					<linearGradient id="SVGID_00000014593677936963234940000016081826208595633570_" gradientUnits="userSpaceOnUse" x1="686.3458" y1="2270.4272" x2="42.4726" y2="3389.2891" gradientTransform="matrix(-1 0 0 1 3188.5061 0)">
					<stop offset="0" style="stop-color: #febbba"></stop>
					<stop offset="1" style="stop-color: #ff928e"></stop>
				</linearGradient>
				<path style="fill: url(&quot;#SVGID_00000014593677936963234940000016081826208595633570_&quot;)" d="M2447.962,2216.493
					c0,0,195.026,75.718,242.629,18.765c3.228-3.864,5.333-8.261,6.514-13.072c31.999,15.888,77.578,51.194,106.179,128.182
					c-102.572,65.543-277.897-36.462-325.304-66.534c-7.798-4.948-17.153-6.682-26.196-4.807
					c-18.285,3.792-49.871,9.367-66.907,6.743c-24.922-3.839-60.719,84.071-101.112,56.955
					C2283.765,2342.725,2318.355,2189.917,2447.962,2216.493z"></path>
				<g>
					
						<linearGradient id="SVGID_00000109741159698382929600000008786620927554476972_" gradientUnits="userSpaceOnUse" x1="1343.7479" y1="226.3017" x2="1133.5063" y2="504.4341" gradientTransform="matrix(-0.9683 -0.2499 -0.2499 0.9683 3559.759 1820.1976)">
						<stop offset="0" style="stop-color: #febbba"></stop>
						<stop offset="1" style="stop-color: #ff928e"></stop>
					</linearGradient>
					<path style="fill: url(&quot;#SVGID_00000109741159698382929600000008786620927554476972_&quot;)" d="M2162.413,1692.033
						c-0.693,2.684,16.142,185.176,16.142,185.176l103.996-11.827l9.741-175.335
						C2292.292,1690.046,2174.01,1647.101,2162.413,1692.033z"></path>
					
						<linearGradient id="SVGID_00000032640391705402295070000003454989018674219186_" gradientUnits="userSpaceOnUse" x1="1183.1807" y1="293.3944" x2="1434.3154" y2="293.3944" gradientTransform="matrix(-0.9683 -0.2499 -0.2499 0.9683 3559.759 1820.1976)">
						<stop offset="0" style="stop-color: #09005d"></stop>
						<stop offset="1" style="stop-color: #1a0f91"></stop>
					</linearGradient>
					<path style="fill: url(&quot;#SVGID_00000032640391705402295070000003454989018674219186_&quot;)" d="M2265.206,1726.382l2.1,92.701
						c0.027,1.189-0.101,2.346-0.397,3.498c-1.81,7.05-9.813,30.848-33.662,21.174c-21.64-8.778-41.52-16.466-56.139-13.692
						c-6.564,1.246-11.102,7.258-10.487,13.911c1.534,16.58,5.681,53.878,14.229,85.734c1.735,6.464,8.166,10.465,14.758,9.303
						c19.861-3.499,61.543-12.049,93.465-26.783c4.326-1.996,7.227-6.144,7.546-10.897c1.559-23.173,6.556-93.586,10.984-112.993
						c4.156-18.214,28.01-26.781,38.282-29.665c3.368-0.945,6.174-3.209,7.818-6.297c5.808-10.915,14.987-36.641-17.114-51.119
						c-6.719-3.03-9.566-10.945-6.333-17.568c6.436-13.185,10.815-33.904-13.671-48.272c-24.888-14.604-45.969-2.795-57.768,7.386
						c-4.771,4.117-11.697,4.064-16.625,0.137c-2.806-2.236-6.621-3.287-11.634-0.879c-6.755,3.245-14.834-0.359-17.362-7.413
						c-4.857-13.554-16.119-28.738-42.226-27.162c-46.327,2.797-57.008,52.621-48.253,83.465
						c8.755,30.845,58.81,24.957,84.935,12.758c19.864-9.274,42.716,5.239,52.53,12.73
						C2263.289,1718.812,2265.117,1722.473,2265.206,1726.382z"></path>
					
						<linearGradient id="SVGID_00000040550305730688070590000007396244042083612091_" gradientUnits="userSpaceOnUse" x1="1035.829" y1="446.5623" x2="1204.4574" y2="273.554" gradientTransform="matrix(-0.9683 -0.2499 -0.2499 0.9683 3559.759 1820.1976)">
						<stop offset="0" style="stop-color: #febbba"></stop>
						<stop offset="1" style="stop-color: #ff928e"></stop>
					</linearGradient>
					<path style="fill: url(&quot;#SVGID_00000040550305730688070590000007396244042083612091_&quot;)" d="M2308.031,1822.099
						c0,0-12.948-54.399,7.664-65.112c20.613-10.712,48.328-0.935,37.904,36.3
						C2340.631,1839.603,2308.031,1822.099,2308.031,1822.099z"></path>
				</g>
			</g>
			<g>
				
					<linearGradient id="SVGID_00000037657124541974152540000014633782863875903678_" gradientUnits="userSpaceOnUse" x1="12815.7705" y1="2948.7568" x2="12486.084" y2="3039.1152" gradientTransform="matrix(0.9988 -0.0494 0.0494 0.9988 -10528.5889 -55.0328)">
					<stop offset="0" style="stop-color: #09005d"></stop>
					<stop offset="1" style="stop-color: #1a0f91"></stop>
				</linearGradient>
				<path style="fill: url(&quot;#SVGID_00000037657124541974152540000014633782863875903678_&quot;)" d="M2348.048,2365.808
					c-0.313,0.016-0.626,0.023-0.941,0.021l-409.191-0.447c-10.115-0.009-18.306-8.217-18.296-18.333
					c0.01-10.119,8.249-18.478,18.337-18.296l409.191,0.446c10.116,0.009,18.306,8.218,18.296,18.333
					C2365.432,2357.333,2357.725,2365.329,2348.048,2365.808z"></path>
				
					<linearGradient id="SVGID_00000118370500380972014270000010806298690916615342_" gradientUnits="userSpaceOnUse" x1="12458.376" y1="2044.106" x2="12224.4482" y2="2291.353" gradientTransform="matrix(1 0 0 1 -10487.1201 0)">
					<stop offset="0" style="stop-color: #09005d"></stop>
					<stop offset="1" style="stop-color: #1a0f91"></stop>
				</linearGradient>
				<path style="fill: url(&quot;#SVGID_00000118370500380972014270000010806298690916615342_&quot;)" d="M1570.072,1994.288h340.777
					c25.139,0,48.021,14.507,58.744,37.245l157.541,334.056h-423.495c-16.2,0-30.756-9.898-36.71-24.965l-122.166-309.12
					C1537.703,2013.644,1550.866,1994.288,1570.072,1994.288z"></path>
				<path style="fill: #7d97f4" d="M1810.152,2165.569c7.385,22.943,1.929,45.225-12.185,49.768
					c-14.115,4.543-31.543-10.374-38.928-33.316c-7.385-22.944-1.929-45.225,12.185-49.769
					C1785.339,2127.709,1802.767,2142.625,1810.152,2165.569z"></path>
			</g>
			<g>
				<g>
					
						<linearGradient id="SVGID_00000000220858344860403170000002596374378151693742_" gradientUnits="userSpaceOnUse" x1="1608.1274" y1="2820.9827" x2="2003.1536" y2="2820.9827">
						<stop offset="0" style="stop-color: #4042e2"></stop>
						<stop offset="1" style="stop-color: #4f52ff"></stop>
					</linearGradient>
					<path style="fill: url(&quot;#SVGID_00000000220858344860403170000002596374378151693742_&quot;)" d="M1625.319,3243.444
						c-2.267,0-4.57-0.439-6.786-1.36c-8.723-3.634-12.754-13.425-9.001-21.87l360.627-811.622
						c3.75-8.442,13.859-12.341,22.591-8.714c8.723,3.634,12.754,13.425,9.001,21.87l-360.627,811.622
						C1638.324,3239.669,1631.982,3243.444,1625.319,3243.444z"></path>
					
						<linearGradient id="SVGID_00000163055890708785024510000005206481139584890290_" gradientUnits="userSpaceOnUse" x1="1653.7457" y1="2820.9812" x2="2048.7717" y2="2820.9812">
						<stop offset="0" style="stop-color: #4042e2"></stop>
						<stop offset="1" style="stop-color: #4f52ff"></stop>
					</linearGradient>
					<path style="fill: url(&quot;#SVGID_00000163055890708785024510000005206481139584890290_&quot;)" d="M2031.58,3243.444
						c-6.664,0-13.005-3.772-15.804-10.073l-360.626-811.622c-3.753-8.445,0.277-18.237,9-21.87
						c8.718-3.633,18.835,0.266,22.591,8.714l360.627,811.622c3.753,8.445-0.277,18.237-9.001,21.87
						C2036.153,3243.005,2033.847,3243.444,2031.58,3243.444z"></path>
					
						<linearGradient id="SVGID_00000137842003459245734360000012347691062629174940_" gradientUnits="userSpaceOnUse" x1="2724.4224" y1="2820.9827" x2="3119.4482" y2="2820.9827">
						<stop offset="0" style="stop-color: #4042e2"></stop>
						<stop offset="1" style="stop-color: #4f52ff"></stop>
					</linearGradient>
					<path style="fill: url(&quot;#SVGID_00000137842003459245734360000012347691062629174940_&quot;)" d="M2741.614,3243.444
						c-2.267,0-4.57-0.439-6.787-1.36c-8.723-3.634-12.753-13.425-9-21.87l360.627-811.622c3.753-8.442,13.856-12.341,22.591-8.714
						c8.723,3.634,12.753,13.425,9,21.87l-360.626,811.622C2754.619,3239.669,2748.277,3243.444,2741.614,3243.444z"></path>
					
						<linearGradient id="SVGID_00000108292066052721434230000016297147418344111771_" gradientUnits="userSpaceOnUse" x1="2770.0378" y1="2820.9812" x2="3165.0635" y2="2820.9812">
						<stop offset="0" style="stop-color: #4042e2"></stop>
						<stop offset="1" style="stop-color: #4f52ff"></stop>
					</linearGradient>
					<path style="fill: url(&quot;#SVGID_00000108292066052721434230000016297147418344111771_&quot;)" d="M3147.872,3243.444
						c-6.664,0-13.005-3.772-15.804-10.073l-360.627-811.622c-3.753-8.445,0.277-18.237,9-21.87
						c8.718-3.633,18.835,0.266,22.591,8.714l360.626,811.622c3.753,8.445-0.277,18.237-9,21.87
						C3152.446,3243.005,3150.139,3243.444,3147.872,3243.444z"></path>
				</g>
				<path style="fill: #bdd0fb" d="M3190.172,2383.534c0.919-5.323-0.333-10.829-3.415-15.011
					c-3.082-4.182-7.671-6.605-12.515-6.605H1533.652c-6.369,0-12.299,3.634-15.73,9.642c-3.432,6.007-3.892,13.558-1.22,20.031
					l17.778,43.078c4.071,9.865,12.892,16.182,22.599,16.182h1605.906c9.029,0,16.79-7.168,18.505-17.094L3190.172,2383.534z"></path>
			</g>
		</g>
		<g>
			<path style="fill: #7d97f4" d="M1055.553,2310.18c0,0,173.913-305.169,119.961-350.622
				c-53.952-45.453-54.913,86.568-76.749,67.868c-21.836-18.7,13.776-128.941,4.075-205.54
				c-9.702-76.599-30.769-179.076-57.976-76.099c-27.208,102.976-23.81,204.507-35.596,152.046
				c-11.785-52.461-52.427-325.921-104.697-244.321c-52.27,81.601-63.238,187.83-10.55,249.724
				c52.689,61.894,123.419,131.006,36.458,85.382c-86.96-45.625-146.232-25.272-53.217,57.387c0,0,139.87,115.754,79.148,110.329
				c-60.723-5.425-157.397,58.664-57.768,104.976C898.642,2261.309,1040.181,2281.868,1055.553,2310.18z"></path>
			
				<linearGradient id="SVGID_00000072986527465264680800000015539330922367644549_" gradientUnits="userSpaceOnUse" x1="647.4958" y1="2361.9585" x2="1046.8799" y2="2361.9585">
				<stop offset="0" style="stop-color: #4042e2"></stop>
				<stop offset="1" style="stop-color: #4f52ff"></stop>
			</linearGradient>
			<path style="fill: url(&quot;#SVGID_00000072986527465264680800000015539330922367644549_&quot;)" d="M983.295,2588.489
				c0,0-338.971-16.083-323.97-94.569c15.001-78.485,125.635-25.931,174.862-20.948c49.228,4.984,20.345-28.671-79.928-99.259
				c-100.273-70.588-155.399-173.971-49.225-125.764c106.174,48.207,148.607,138.731,141.418,74.88
				c-7.19-63.851-143.668-243.605-28.233-170.003c115.436,73.602,107.541,141.712,111.023,195.448
				c3.482,53.736,18.859-103.996,54.951-80.498c36.092,23.498,15.603,47.638,2.682,110.098
				c-12.922,62.459,23.251,12.113,35.206-8.389c11.955-20.502,41.325,28.67,12.553,96.511
				C1005.862,2533.839,983.295,2588.489,983.295,2588.489z"></path>
			<path style="fill: #7d97f4" d="M1050.808,2945.822c-0.227,0.193-0.377,0.435-0.437,0.678c-0.028,0.017-0.042,0.478-0.021,0.124
				l0.046-0.963l0.19-3.853l0.318-7.873l0.526-15.915l0.816-31.951l1.108-63.995c0.542-42.68,0.734-85.376,0.598-128.069
				c-0.25-85.387-1.794-170.772-5.049-256.069c-1.689-42.645-3.849-85.26-6.532-127.834c-2.825-42.559-6.256-85.065-10.601-127.454
				c-4.38-42.379-9.899-84.62-17.24-126.456c-7.507-41.726-16.578-83.418-31.569-122.468l-0.079-0.207
				c-1.474-3.839,0.444-8.145,4.283-9.619c3.805-1.461,8.072,0.416,9.582,4.189c16.244,40.665,25.935,82.862,34.152,125.088
				c8.017,42.288,14.16,84.823,19.155,127.439c4.958,42.621,8.991,85.317,12.413,128.045c3.282,42.734,6.034,85.498,8.313,128.278
				c4.435,85.565,7.153,171.184,8.574,256.82c0.722,42.819,1.114,85.642,1.154,128.476l-0.235,64.272l-0.382,32.175l-0.314,16.142
				l-0.218,8.152l-0.148,4.157l-0.037,1.04c-0.006,0.313-0.096,1.439-0.173,2.122c-0.17,1.575-0.431,3.148-0.769,4.673
				c-2.523,7.572-10.709,11.665-18.281,9.141C1052.376,2961.58,1048.283,2953.395,1050.808,2945.822z"></path>
			
				<linearGradient id="SVGID_00000118360371378462435560000011785308406462957226_" gradientUnits="userSpaceOnUse" x1="888.8822" y1="2649.0625" x2="1077.7081" y2="2649.0625">
				<stop offset="0" style="stop-color: #4042e2"></stop>
				<stop offset="1" style="stop-color: #4f52ff"></stop>
			</linearGradient>
			<path style="fill: url(&quot;#SVGID_00000118360371378462435560000011785308406462957226_&quot;)" d="M1048.933,2962.268
				c-0.126,0.384-0.182,0.792-0.167,1.186c-0.009,0.105,0.067,0.598,0.037,0.371l-0.088-0.604l-0.348-2.418l-0.755-4.975
				l-1.6-10.085l-3.351-20.248l-7.014-40.519c-4.788-27.006-9.777-53.985-14.949-80.928c-10.331-53.89-21.395-107.64-33.403-161.155
				c-12.081-53.49-25.074-106.774-40.105-159.394c-7.534-26.298-15.669-52.401-24.798-78.066
				c-9.207-25.578-19.29-50.989-32.431-74.133l-0.106-0.186c-2.031-3.575-0.777-8.12,2.799-10.15
				c3.528-2.003,8.003-0.803,10.072,2.662c14.552,24.419,25.312,50.145,35.281,76.039c9.851,25.939,18.639,52.182,26.813,78.573
				c16.301,52.798,30.503,106.114,43.789,159.62c13.211,53.524,25.464,107.255,36.986,161.141
				c5.768,26.942,11.353,53.922,16.739,80.951l7.918,40.595l3.816,20.362l1.849,10.244l0.902,5.199l0.443,2.676l0.11,0.669
				l0.197,1.649c0.115,1.248,0.159,2.508,0.134,3.746c-0.778,7.945-7.851,13.753-15.794,12.974
				C1053.963,2977.284,1048.154,2970.212,1048.933,2962.268z"></path>
			
				<linearGradient id="SVGID_00000093155353211090480840000001897851385311855251_" gradientUnits="userSpaceOnUse" x1="1033.2037" y1="2139.2888" x2="1434.6586" y2="2139.2888">
				<stop offset="0" style="stop-color: #4042e2"></stop>
				<stop offset="1" style="stop-color: #4f52ff"></stop>
			</linearGradient>
			<path style="fill: url(&quot;#SVGID_00000093155353211090480840000001897851385311855251_&quot;)" d="M1121.598,2371.792
				c0,0,343.64-54.764,310.856-127.635c-32.785-72.871-128.224,3.895-174.955,20.153c-46.731,16.258-53.443,8.149,27.738-83.76
				c81.181-91.907,88.757-187.267-3.352-115.763c-92.109,71.503-60.228,137.822-68.033,74.043
				c-7.806-63.778,115.312-307.292,20.08-208.938c-95.232,98.354-106.87,182.069-97.802,235.148
				c9.068,53.08-42.451-96.793-72.113-65.569c-29.662,31.224-4.137,49.958,22.911,107.721c27.047,57.764-19.811,17.173-36.192,0
				c-16.381-17.173-33.554,37.468,10.159,96.793C1104.606,2363.311,1121.598,2371.792,1121.598,2371.792z"></path>
			
				<linearGradient id="SVGID_00000174576064364393586050000018153407140204185506_" gradientUnits="userSpaceOnUse" x1="1094.0349" y1="2572.7007" x2="1172.7113" y2="2572.7007">
				<stop offset="0" style="stop-color: #4042e2"></stop>
				<stop offset="1" style="stop-color: #4f52ff"></stop>
			</linearGradient>
			<path style="fill: url(&quot;#SVGID_00000174576064364393586050000018153407140204185506_&quot;)" d="M1095.703,2954.964
				c-0.323-1.357-0.57-2.762-0.728-4.169c-0.071-0.599-0.151-1.641-0.154-1.87l-0.026-0.787l-0.106-3.148l-0.15-6.131l-0.208-12.099
				l-0.231-24.088l-0.065-48.096c0.104-32.05,0.471-64.088,1.083-96.123c1.211-64.068,3.391-128.122,6.857-192.139
				c3.562-64.011,8.344-128,15.951-191.803c3.813-31.897,8.485-63.74,14.565-95.42c6.234-31.639,13.56-63.257,25.864-93.869
				c1.533-3.815,5.869-5.665,9.684-4.131c3.772,1.516,5.623,5.77,4.184,9.552l-0.083,0.215
				c-11.053,28.997-17.757,60.11-23.28,91.249c-5.405,31.227-9.452,62.776-12.65,94.437c-6.382,63.336-9.979,127.032-12.358,190.769
				c-2.286,63.75-3.292,127.57-3.332,191.389c-0.027,31.909,0.189,63.82,0.668,95.717l0.938,47.819l0.664,23.864l0.42,11.872
				l0.25,5.853l0.147,2.843l0.036,0.711c0.016,0.271-0.006-0.275-0.041-0.376c-0.074-0.411-0.238-0.821-0.479-1.182
				c2.525,7.573-1.568,15.758-9.141,18.282C1106.412,2966.629,1098.227,2962.536,1095.703,2954.964z"></path>
			<g>
				
					<linearGradient id="SVGID_00000108306624705456203430000006393821864584813986_" gradientUnits="userSpaceOnUse" x1="1319.5265" y1="2391.093" x2="744.3556" y2="3678.0364">
					<stop offset="0" style="stop-color: #4042e2"></stop>
					<stop offset="1" style="stop-color: #4f52ff"></stop>
				</linearGradient>
				<path style="fill: url(&quot;#SVGID_00000108306624705456203430000006393821864584813986_&quot;)" d="M931.195,2888.712h284.54
					c18.65,0,32.449,17.35,28.254,35.522c-18.205,78.872-40.024,158.898-84.666,240.129c-8.245,15.004-23.946,24.412-41.066,24.412
					h-92.849c-16.861,0-32.333-9.264-40.323-24.112c-35.766-66.463-70.176-145.691-87.165-235.61
					C893.966,2908.125,909.897,2888.712,931.195,2888.712z"></path>
			</g>
		</g>
		<g>
			<g>
				
					<linearGradient id="SVGID_00000065039447847201564220000004157247719901744796_" gradientUnits="userSpaceOnUse" x1="1137.2142" y1="841.022" x2="706.0815" y2="1648.4141">
					<stop offset="0" style="stop-color: #4042e2"></stop>
					<stop offset="1" style="stop-color: #4f52ff"></stop>
				</linearGradient>
				<path style="fill: url(&quot;#SVGID_00000065039447847201564220000004157247719901744796_&quot;)" d="M566.732,723.902
					c0,0-110.491,61.208-119.633,164.798c-9.141,103.59-0.761,533.553,220.802,639.378
					c221.563,105.825,514.837,81.436,627.096,69.867c112.259-11.569,174.502-87.862,188.406-140.392
					c13.904-52.529,36.362-248.21-81.732-311.33c-118.095-63.12-242.128-159.821-366.068-253.983
					C911.663,798.079,699.258,644.371,566.732,723.902z"></path>
				
					<linearGradient id="SVGID_00000139265410669941446740000004746267566196044185_" gradientUnits="userSpaceOnUse" x1="1396.9797" y1="1240.2509" x2="1505.0881" y2="1353.1642">
					<stop offset="0" style="stop-color: #09005d"></stop>
					<stop offset="1" style="stop-color: #1a0f91"></stop>
				</linearGradient>
				<path style="fill: url(&quot;#SVGID_00000139265410669941446740000004746267566196044185_&quot;)" d="M1366.847,1181.936
					c0,0-29.821,1.577-33.478,62.93c0,0,69.15,61.989,162.558,76.744c7.013,1.108-9.803-47.87-12.331-54.504
					C1471.567,1235.539,1433.685,1215.208,1366.847,1181.936z"></path>
				
					<linearGradient id="SVGID_00000034080865884059416450000003626821854643913367_" gradientUnits="userSpaceOnUse" x1="1582.584" y1="201.6114" x2="1444.7439" y2="564.0798">
					<stop offset="0" style="stop-color: #09005d"></stop>
					<stop offset="1" style="stop-color: #1a0f91"></stop>
				</linearGradient>
				<path style="fill: url(&quot;#SVGID_00000034080865884059416450000003626821854643913367_&quot;)" d="M1030.998,1109.797h62.93
					c0,0,193.149-213.315,319.83-234.836c0,0,88.182,112.564-4.697,322.885c-7.471,16.919-28.368,24.436-43.956,14.48
					c-4.662-2.977-8.01-6.968-10.043-11.972l7.469-179.581c0,0-164.757,144.098-193.394,171.906
					C1140.499,1220.488,994.932,1203.539,1030.998,1109.797z"></path>
				
					<linearGradient id="SVGID_00000158716374677537264600000017455982031641113993_" gradientUnits="userSpaceOnUse" x1="1540.3918" y1="1523.6636" x2="1744.8827" y2="1673.7485">
					<stop offset="0" style="stop-color: #09005d"></stop>
					<stop offset="1" style="stop-color: #1a0f91"></stop>
				</linearGradient>
				<path style="fill: url(&quot;#SVGID_00000158716374677537264600000017455982031641113993_&quot;)" d="M1639.398,1557.663
					c-26.371-23.108-68.389-49.038-129.047-56.472l-20.514,12.548c0,0,13.081,19.295,36.978,39.676
					c21.963,12.757,55.877,30.034,83.993,33.779C1638.144,1590.834,1642.176,1574.316,1639.398,1557.663z"></path>
				<path style="fill: #7d97f4" d="M1483.595,1267.106c-16.246,5.258-23.391,28.276-64.616,13.055
					c-39.884-14.726-69.532-33.716-84.786-44.668c-0.341,2.968-0.627,6.067-0.824,9.373c0,0,72.912,69.351,166.32,84.105
					c7.012,1.108,12.57-5.892,10.042-12.526C1505.195,1304.541,1497.016,1286.486,1483.595,1267.106z"></path>
				<path style="fill: #91b3fa" d="M1659.265,1577.395c-5.199-5.909-11.835-12.695-19.867-19.733
					c2.778,16.653-1.254,33.171-28.59,29.531c-28.116-3.745-62.03-21.023-83.993-33.779c27.527,23.477,69.411,48.395,122.273,46.932
					C1660.831,1600.02,1667.023,1586.214,1659.265,1577.395z"></path>
				
					<linearGradient id="SVGID_00000010294325785716494630000002774752831651405960_" gradientUnits="userSpaceOnUse" x1="1648.1571" y1="226.5463" x2="1510.3167" y2="589.0155">
					<stop offset="0" style="stop-color: #09005d"></stop>
					<stop offset="1" style="stop-color: #1a0f91"></stop>
				</linearGradient>
				<path style="fill: url(&quot;#SVGID_00000010294325785716494630000002774752831651405960_&quot;)" d="M1033.3,1155.33l294.697,3.191
					c0,0,168.293,139.238,198.819,351.555c0,0,5.067,15.615-25.353,18.286c0,0-101.749-66.454-168.094-183.946
					c-81.349-144.062-242.51-79.213-242.51-79.213c-52.954-38.177-127.779-45.952-184.15-58.67L1033.3,1155.33z"></path>
				
					<linearGradient id="SVGID_00000158747524229482187810000017550853529330892462_" gradientUnits="userSpaceOnUse" x1="1210.0138" y1="968.9802" x2="1071.1849" y2="1134.0739">
					<stop offset="0" style="stop-color: #febbba"></stop>
					<stop offset="1" style="stop-color: #ff928e"></stop>
				</linearGradient>
				<path style="fill: url(&quot;#SVGID_00000158747524229482187810000017550853529330892462_&quot;)" d="M1040.26,917.937
					c0,0,31.725,158.99,187.166,221.888l55.292-6.516l13.047,20.803l-129.698,4.133c0,0-110.865-43.911-169.604-163.563
					C994.523,990.728,962.177,923.941,1040.26,917.937z"></path>
				
					<linearGradient id="SVGID_00000013166012725168742480000017795924105191709063_" gradientUnits="userSpaceOnUse" x1="685.6011" y1="192.9772" x2="908.0323" y2="973.3423">
					<stop offset="0" style="stop-color: #ff928e"></stop>
					<stop offset="1" style="stop-color: #fe7062"></stop>
				</linearGradient>
				<path style="fill: url(&quot;#SVGID_00000013166012725168742480000017795924105191709063_&quot;)" d="M1057.26,1152.731
					c0,0-36.076-98.066-43.83-193.353c0,0,26.392-22.682,42.889-32.468c5.342-3.169,7.359-9.872,4.659-15.466
					c-12.129-25.125-85.475-123.779-90.968-125.15c-29.863-7.453-152.337-65.686-238.595,52.301
					c-37.019,50.636,7.346,206.512,175.293,367.937l34.647,6.627L1057.26,1152.731z"></path>
				
					<linearGradient id="SVGID_00000171691381565355712270000001880351734496855730_" gradientUnits="userSpaceOnUse" x1="1048.1338" y1="1119.196" x2="1325.6299" y2="739.5662">
					<stop offset="0" style="stop-color: #febbba"></stop>
					<stop offset="1" style="stop-color: #ff928e"></stop>
				</linearGradient>
				<path style="fill: url(&quot;#SVGID_00000171691381565355712270000001880351734496855730_&quot;)" d="M918.249,980.867
					c0,0,100.231,118.679,228.377,136.029c0,0,33.118-30.193,57.745-19.413c24.627,10.779,58.394,58.361,58.394,58.361h-164.54
					c0,0-155.579-5.482-233.321-99.824C871.16,1023.007,889.893,1003.287,918.249,980.867z"></path>
				
					<linearGradient id="SVGID_00000098923870853958700640000008016380389847057055_" gradientUnits="userSpaceOnUse" x1="878.3813" y1="804.597" x2="888.6028" y2="712.6041">
					<stop offset="0" style="stop-color: #febbba"></stop>
					<stop offset="1" style="stop-color: #ff928e"></stop>
				</linearGradient>
				<path style="fill: url(&quot;#SVGID_00000098923870853958700640000008016380389847057055_&quot;)" d="M859.776,703.054l-21.931,73.145
					c-1.005,3.351,0.236,6.98,3.123,8.957c10.559,7.232,38.155,21.613,76.012,7.637c4.329-1.599,7.296-5.642,7.672-10.242
					l5.199-63.72L859.776,703.054z"></path>
				<g>
					
						<linearGradient id="SVGID_00000035496031382240585780000015684465921228855444_" gradientUnits="userSpaceOnUse" x1="932.8991" y1="724.352" x2="887.8464" y2="575.7578">
						<stop offset="0" style="stop-color: #febbba"></stop>
						<stop offset="1" style="stop-color: #ff928e"></stop>
					</linearGradient>
					<path style="fill: url(&quot;#SVGID_00000035496031382240585780000015684465921228855444_&quot;)" d="M988.194,643.817
						c0,0-10.783,75.822-39.909,99.14c-29.126,23.317-85.874,5.76-105.041-51.4l38.19-97.734L988.194,643.817z"></path>
					
						<linearGradient id="SVGID_00000151523218650531042130000007449298863814021771_" gradientUnits="userSpaceOnUse" x1="892.3347" y1="452.026" x2="934.1279" y2="690.4017">
						<stop offset="0" style="stop-color: #09005d"></stop>
						<stop offset="1" style="stop-color: #1a0f91"></stop>
					</linearGradient>
					<path style="fill: url(&quot;#SVGID_00000151523218650531042130000007449298863814021771_&quot;)" d="M877.132,657.067
						c2.215,0.714,4.535-0.706,4.881-3.008c1.051-6.999,3.676-20.851,8.989-30.286c0,0-2.779-9.948,25.14,5.08
						c27.92,15.028,69.855,37.103,94.544,23.958c24.071-12.816,48.454-77.316-15.162-65.366c-2.42,0.455-4.646-1.474-4.465-3.93
						c0.781-10.601-0.27-34.989-24.967-42.817c-23.111-7.326-10.703,4.548-15.916,10.845c-1.534,1.853,1.936-6.308-30.904-1.534
						c-11.267,1.638-25.725-28.276-53.403-16.079c-22.798,10.047-26.344,24.089-25.967,32.84c0.122,2.835-2.755,4.757-5.333,3.569
						c-6.982-3.216-18.213-4.886-28.971,8.593c-14.873,18.635,6.381,34.795,12.757,39.031c1.044,0.694,1.694,1.844,1.702,3.099
						c0.06,9.691,1.569,51.964,22.756,75.809c1.835,2.065,5.225,1.459,6.294-1.087l16.313-38.868c0.758-1.805,2.77-2.73,4.634-2.13
						L877.132,657.067z"></path>
					
						<linearGradient id="SVGID_00000164491897913956265910000011429997494537141400_" gradientUnits="userSpaceOnUse" x1="886.234" y1="738.5006" x2="841.1813" y2="589.906">
						<stop offset="0" style="stop-color: #febbba"></stop>
						<stop offset="1" style="stop-color: #ff928e"></stop>
					</linearGradient>
					<path style="fill: url(&quot;#SVGID_00000164491897913956265910000011429997494537141400_&quot;)" d="M877.476,664.958
						c0,0-9.962-40.574-25.094-27.4c-15.132,13.173,3.945,42.167,21.28,47.694L877.476,664.958z"></path>
				</g>
				<path style="fill: #7d97f4" d="M1254.481,1165.052l73.878-246.375c3.014-10.051,11.943-17.182,22.412-17.898l99.745-6.825
					c10.139-0.694,17.68,9.211,14.314,18.799l-82.589,235.286c-2.661,7.58-9.465,12.937-17.458,13.745l-98.223,10.907
					L1254.481,1165.052z"></path>
				<path style="fill: #91b3fa" d="M1390.732,1002.18c-5.516,11.134-15.041,17.655-21.275,14.567
					c-6.234-3.088-6.817-14.618-1.301-25.751c5.516-11.134,15.041-17.656,21.275-14.567
					C1395.665,979.517,1396.247,991.046,1390.732,1002.18z"></path>
				<path style="fill: #7d97f4" d="M1266.559,1172.691c-0.16,0-0.32-0.004-0.482-0.013l-209.291-10.578
					c-5.174-0.26-9.156-4.666-8.895-9.84c0.261-5.176,4.687-9.243,9.842-8.895l209.291,10.578c5.174,0.26,9.156,4.667,8.895,9.84
					C1275.666,1168.796,1271.522,1172.691,1266.559,1172.691z"></path>
				
					<linearGradient id="SVGID_00000008141396778991856810000000916792632720655252_" gradientUnits="userSpaceOnUse" x1="994.7999" y1="907.9663" x2="1015.0928" y2="907.9663">
					<stop offset="0" style="stop-color: #e1473d"></stop>
					<stop offset="1" style="stop-color: #e9605a"></stop>
				</linearGradient>
				<path style="fill: url(&quot;#SVGID_00000008141396778991856810000000916792632720655252_&quot;)" d="M1013.433,961.038
					c-0.913,0-1.665-0.746-1.659-1.666c0.141-43.722-16.733-101.769-16.906-102.351c-0.257-0.878,0.244-1.801,1.125-2.061
					c0.894-0.251,1.807,0.244,2.064,1.129c0.174,0.585,17.183,59.085,17.035,103.297
					C1015.092,960.298,1014.346,961.038,1013.433,961.038z"></path>
				
					<linearGradient id="SVGID_00000081629651811858556870000016040247516486805122_" gradientUnits="userSpaceOnUse" x1="854.8555" y1="931.7499" x2="919.9127" y2="931.7499">
					<stop offset="0" style="stop-color: #e1473d"></stop>
					<stop offset="1" style="stop-color: #e9605a"></stop>
				</linearGradient>
				<path style="fill: url(&quot;#SVGID_00000081629651811858556870000016040247516486805122_&quot;)" d="M918.252,982.526
					c-0.489,0-0.978-0.215-1.305-0.63c-0.457-0.582-46.237-58.77-61.973-98.65c-0.341-0.855,0.084-1.82,0.932-2.154
					c0.855-0.338,1.82,0.077,2.154,0.932c15.562,39.427,61.034,97.236,61.497,97.814c0.566,0.72,0.444,1.765-0.277,2.331
					C918.978,982.41,918.612,982.526,918.252,982.526z"></path>
				
					<linearGradient id="SVGID_00000047060475525526851200000008849266985980786822_" gradientUnits="userSpaceOnUse" x1="744.8843" y1="1015.9172" x2="862.5188" y2="1015.9172">
					<stop offset="0" style="stop-color: #e1473d"></stop>
					<stop offset="1" style="stop-color: #e9605a"></stop>
				</linearGradient>
				<path style="fill: url(&quot;#SVGID_00000047060475525526851200000008849266985980786822_&quot;)" d="M853.835,1071.495l-1.235-0.527
					c-66.223-28.353-107.129-107.419-107.534-108.213c-0.418-0.82-0.09-1.82,0.727-2.235c0.797-0.411,1.801-0.1,2.231,0.724
					c0.399,0.781,40.263,77.818,104.654,106.136l6.823-9.64c0.54-0.756,1.576-0.923,2.315-0.399
					c0.752,0.531,0.926,1.566,0.399,2.315L853.835,1071.495z"></path>
			</g>
		</g>
	</g>
</g>
</svg>
